<?xml version="1.0" encoding="UTF-8" standalone="no"?>
<!DOCTYPE svg PUBLIC "-//W3C//DTD SVG 1.1//EN" "http://www.w3.org/Graphics/SVG/1.1/DTD/svg11.dtd">
<!-- Generated by Microsoft Visio, SVG Export Diagrama_Componentes.svg Page-1 -->
<svg xmlns="http://www.w3.org/2000/svg" xmlns:xlink="http://www.w3.org/1999/xlink" xmlns:ev="http://www.w3.org/2001/xml-events"
		xmlns:v="http://schemas.microsoft.com/visio/2003/SVGExtensions/" width="11.6929in" height="8.26772in"
		viewBox="0 0 841.89 595.276" xml:space="preserve" color-interpolation-filters="sRGB" class="st11">
	<v:documentProperties v:langID="2070" v:metric="true" v:viewMarkup="false">
		<v:userDefs>
			<v:ud v:nameU="msvNoAutoConnect" v:val="VT0(1):26"/>
		</v:userDefs>
	</v:documentProperties>

	<style type="text/css">
	<![CDATA[
		.st1 {fill:#5d97c2;stroke:#006b99;stroke-linecap:butt;stroke-width:1.25}
		.st2 {fill:#ffffff;font-family:Calisto MT;font-size:1.16666em}
		.st3 {font-size:1em}
		.st4 {marker-end:url(#mrkr4-137);stroke:#ff0000;stroke-linecap:round;stroke-linejoin:round;stroke-width:0.237638}
		.st5 {fill:#ff0000;fill-opacity:1;stroke:#ff0000;stroke-opacity:1;stroke-width:0.086174404659928}
		.st6 {marker-end:url(#mrkr4-148);stroke:#ff0000;stroke-linecap:round;stroke-linejoin:round;stroke-width:0.237638}
		.st7 {marker-end:url(#mrkr4-164);stroke:#ff0000;stroke-linecap:round;stroke-linejoin:round;stroke-width:0.237638}
		.st8 {marker-end:url(#mrkr4-195);stroke:#0083b9;stroke-linecap:round;stroke-linejoin:round;stroke-width:0.237638}
		.st9 {fill:#0083b9;fill-opacity:1;stroke:#0083b9;stroke-opacity:1;stroke-width:0.086174404659928}
		.st10 {marker-end:url(#mrkr4-211);stroke:#0083b9;stroke-linecap:round;stroke-linejoin:round;stroke-width:0.237638}
		.st11 {fill:none;fill-rule:evenodd;font-size:12px;overflow:visible;stroke-linecap:square;stroke-miterlimit:3}
	]]>
	</style>

	<defs id="Markers">
		<g id="lend4">
			<path d="M 2 1 L 0 0 L 2 -1 L 2 1 " style="stroke:none"/>
		</g>
		<marker id="mrkr4-137" class="st5" v:arrowType="4" v:arrowSize="2" v:setback="23.2087" refX="-23.208747514911"
				orient="auto" markerUnits="strokeWidth" overflow="visible">
			<use xlink:href="#lend4" transform="scale(-11.604373757455,-11.604373757455) "/>
		</marker>
		<marker id="mrkr4-148" class="st5" v:arrowType="4" v:arrowSize="2" v:setback="21.6938" refX="-21.693836978131"
				orient="auto" markerUnits="strokeWidth" overflow="visible">
			<use xlink:href="#lend4" transform="scale(-11.604373757455,-11.604373757455) "/>
		</marker>
		<marker id="mrkr4-164" class="st5" v:arrowType="4" v:arrowSize="2" v:setback="0" refX="-0" orient="auto"
				markerUnits="strokeWidth" overflow="visible">
			<use xlink:href="#lend4" transform="scale(-11.604373757455,-11.604373757455) "/>
		</marker>
		<marker id="mrkr4-195" class="st9" v:arrowType="4" v:arrowSize="2" v:setback="21.6938" refX="-21.693836978131"
				orient="auto" markerUnits="strokeWidth" overflow="visible">
			<use xlink:href="#lend4" transform="scale(-11.604373757455,-11.604373757455) "/>
		</marker>
		<marker id="mrkr4-211" class="st9" v:arrowType="4" v:arrowSize="2" v:setback="23.2087" refX="-23.208747514911"
				orient="auto" markerUnits="strokeWidth" overflow="visible">
			<use xlink:href="#lend4" transform="scale(-11.604373757455,-11.604373757455) "/>
		</marker>
	</defs>
	<g v:mID="0" v:index="1" v:groupContext="foregroundPage">
		<v:userDefs>
			<v:ud v:nameU="msvThemeOrder" v:val="VT0(0):26"/>
		</v:userDefs>
		<title>Page-1</title>
		<v:pageProperties v:drawingScale="0.0393701" v:pageScale="0.0393701" v:drawingUnits="24" v:shadowOffsetX="8.50394"
				v:shadowOffsetY="-8.50394"/>
		<v:layer v:name="Connector" v:index="0"/>
		<g id="group6-1" transform="translate(81.3288,-314.112)" v:mID="6" v:groupContext="group">
			<v:userDefs>
				<v:ud v:nameU="visDescription" v:val="VT4(Use to add a system component to your system diagram.)"/>
				<v:ud v:nameU="visVersion" v:val="VT0(15):26"/>
			</v:userDefs>
			<title>Component</title>
			<g id="shape7-2" v:mID="7" v:groupContext="shape" transform="translate(12.6,0)">
				<title>Sheet.7</title>
				<rect x="0" y="553.672" width="130.914" height="41.6033" class="st1"/>
			</g>
			<g id="shape8-4" v:mID="8" v:groupContext="shape" transform="translate(0,-26.0021)">
				<title>Sheet.8</title>
				<rect x="0" y="584.875" width="25.2" height="10.4008" class="st1"/>
			</g>
			<g id="shape9-6" v:mID="9" v:groupContext="shape" transform="translate(0,-5.20041)">
				<title>Sheet.9</title>
				<rect x="0" y="584.875" width="25.2" height="10.4008" class="st1"/>
			</g>
			<g id="shape10-8" v:mID="10" v:groupContext="shape" transform="translate(25.2,0)">
				<title>Sheet.10</title>
				<desc>Base_De_Dados IPGTrails4Health</desc>
				<v:textBlock v:margins="rect(4,4,4,4)" v:tabSpace="42.5197"/>
				<v:textRect cx="59.1569" cy="574.474" width="118.32" height="41.6033"/>
				<rect x="0" y="553.672" width="118.314" height="41.6033" class="st1"/>
				<text x="10" y="570.27" class="st2" v:langID="2070"><v:paragraph v:horizAlign="1"/><v:tabList/>Base_De_Dados<v:newlineChar/><tspan
							x="5.79" dy="1.2em" class="st3">IPGTrails4Health</tspan></text>			</g>
		</g>
		<g id="group11-12" transform="translate(586.563,-497.339)" v:mID="11" v:groupContext="group">
			<v:userDefs>
				<v:ud v:nameU="visDescription" v:val="VT4(Use to add a system component to your system diagram.)"/>
				<v:ud v:nameU="visVersion" v:val="VT0(15):26"/>
			</v:userDefs>
			<title>Component.11</title>
			<g id="shape12-13" v:mID="12" v:groupContext="shape" transform="translate(12.6,0)">
				<title>Sheet.12</title>
				<rect x="0" y="559.276" width="126.545" height="36" class="st1"/>
			</g>
			<g id="shape13-15" v:mID="13" v:groupContext="shape" transform="translate(0,-22.5)">
				<title>Sheet.13</title>
				<rect x="0" y="586.276" width="25.2" height="9" class="st1"/>
			</g>
			<g id="shape14-17" v:mID="14" v:groupContext="shape" transform="translate(0,-4.5)">
				<title>Sheet.14</title>
				<rect x="0" y="586.276" width="25.2" height="9" class="st1"/>
			</g>
			<g id="shape15-19" v:mID="15" v:groupContext="shape" transform="translate(25.2,0)">
				<title>Sheet.15</title>
				<desc>Acesso_Controlo</desc>
				<v:textBlock v:margins="rect(4,4,4,4)" v:tabSpace="42.5197"/>
				<v:textRect cx="56.9727" cy="577.276" width="113.95" height="36"/>
				<rect x="0" y="559.276" width="113.945" height="36" class="st1"/>
				<text x="5.79" y="581.48" class="st2" v:langID="2070"><v:paragraph v:horizAlign="1"/><v:tabList/>Acesso_Controlo</text>			</g>
		</g>
		<g id="group16-22" transform="translate(315.884,-230.457)" v:mID="16" v:groupContext="group">
			<v:userDefs>
				<v:ud v:nameU="visDescription" v:val="VT4(Use to add a system component to your system diagram.)"/>
				<v:ud v:nameU="visVersion" v:val="VT0(15):26"/>
			</v:userDefs>
			<title>Component.16</title>
			<g id="shape17-23" v:mID="17" v:groupContext="shape" transform="translate(12.6,0)">
				<title>Sheet.17</title>
				<rect x="0" y="559.276" width="137.36" height="36" class="st1"/>
			</g>
			<g id="shape18-25" v:mID="18" v:groupContext="shape" transform="translate(0,-22.5)">
				<title>Sheet.18</title>
				<rect x="0" y="586.276" width="25.2" height="9" class="st1"/>
			</g>
			<g id="shape19-27" v:mID="19" v:groupContext="shape" transform="translate(0,-4.5)">
				<title>Sheet.19</title>
				<rect x="0" y="586.276" width="25.2" height="9" class="st1"/>
			</g>
			<g id="shape20-29" v:mID="20" v:groupContext="shape" transform="translate(25.2,0)">
				<title>Sheet.20</title>
				<desc>CRUDAlojamento</desc>
				<v:textBlock v:margins="rect(4,4,4,4)" v:tabSpace="42.5197"/>
				<v:textRect cx="62.3801" cy="577.276" width="124.77" height="36"/>
				<rect x="0" y="559.276" width="124.76" height="36" class="st1"/>
				<text x="5.79" y="581.48" class="st2" v:langID="2070"><v:paragraph v:horizAlign="1"/><v:tabList/>CRUDAlojamento</text>			</g>
		</g>
		<g id="group31-32" transform="translate(529.723,-230.457)" v:mID="31" v:groupContext="group">
			<v:userDefs>
				<v:ud v:nameU="visDescription" v:val="VT4(Use to add a system component to your system diagram.)"/>
				<v:ud v:nameU="visVersion" v:val="VT0(15):26"/>
			</v:userDefs>
			<title>Component.31</title>
			<g id="shape32-33" v:mID="32" v:groupContext="shape" transform="translate(12.6,0)">
				<title>Sheet.32</title>
				<rect x="0" y="559.276" width="181.075" height="36" class="st1"/>
			</g>
			<g id="shape33-35" v:mID="33" v:groupContext="shape" transform="translate(0,-22.5)">
				<title>Sheet.33</title>
				<rect x="0" y="586.276" width="25.2" height="9" class="st1"/>
			</g>
			<g id="shape34-37" v:mID="34" v:groupContext="shape" transform="translate(0,-4.5)">
				<title>Sheet.34</title>
				<rect x="0" y="586.276" width="25.2" height="9" class="st1"/>
			</g>
			<g id="shape35-39" v:mID="35" v:groupContext="shape" transform="translate(25.2,0)">
				<title>Sheet.35</title>
				<desc>ConsultarTipoAlojamento</desc>
				<v:textBlock v:margins="rect(4,4,4,4)" v:tabSpace="42.5197"/>
				<v:textRect cx="84.2374" cy="577.276" width="168.48" height="36"/>
				<rect x="0" y="559.276" width="168.475" height="36" class="st1"/>
				<text x="5.79" y="581.48" class="st2" v:langID="2070"><v:paragraph v:horizAlign="1"/><v:tabList/>ConsultarTipoAlojamento</text>			</g>
		</g>
		<g id="group36-42" transform="translate(318.857,-115.937)" v:mID="36" v:groupContext="group">
			<v:userDefs>
				<v:ud v:nameU="visDescription" v:val="VT4(Use to add a system component to your system diagram.)"/>
				<v:ud v:nameU="visVersion" v:val="VT0(15):26"/>
			</v:userDefs>
			<title>Component.36</title>
			<g id="shape37-43" v:mID="37" v:groupContext="shape" transform="translate(12.6,0)">
				<title>Sheet.37</title>
				<rect x="0" y="559.276" width="123.489" height="36" class="st1"/>
			</g>
			<g id="shape38-45" v:mID="38" v:groupContext="shape" transform="translate(0,-22.5)">
				<title>Sheet.38</title>
				<rect x="0" y="586.276" width="25.2" height="9" class="st1"/>
			</g>
			<g id="shape39-47" v:mID="39" v:groupContext="shape" transform="translate(0,-4.5)">
				<title>Sheet.39</title>
				<rect x="0" y="586.276" width="25.2" height="9" class="st1"/>
			</g>
			<g id="shape40-49" v:mID="40" v:groupContext="shape" transform="translate(25.2,0)">
				<title>Sheet.40</title>
				<desc>ConsultarEstado</desc>
				<v:textBlock v:margins="rect(4,4,4,4)" v:tabSpace="42.5197"/>
				<v:textRect cx="55.4447" cy="577.276" width="110.89" height="36"/>
				<rect x="0" y="559.276" width="110.889" height="36" class="st1"/>
				<text x="5.79" y="581.48" class="st2" v:langID="2070"><v:paragraph v:horizAlign="1"/><v:tabList/>ConsultarEstado</text>			</g>
		</g>
		<g id="group46-52" transform="translate(312.172,-516.756)" v:mID="46" v:groupContext="group">
			<v:userDefs>
				<v:ud v:nameU="visDescription" v:val="VT4(Use to add a system component to your system diagram.)"/>
				<v:ud v:nameU="visVersion" v:val="VT0(15):26"/>
			</v:userDefs>
			<title>Component.46</title>
			<g id="shape47-53" v:mID="47" v:groupContext="shape" transform="translate(12.6,0)">
				<title>Sheet.47</title>
				<rect x="0" y="559.276" width="104.09" height="36" class="st1"/>
			</g>
			<g id="shape48-55" v:mID="48" v:groupContext="shape" transform="translate(0,-22.5)">
				<title>Sheet.48</title>
				<rect x="0" y="586.276" width="25.2" height="9" class="st1"/>
			</g>
			<g id="shape49-57" v:mID="49" v:groupContext="shape" transform="translate(0,-4.5)">
				<title>Sheet.49</title>
				<rect x="0" y="586.276" width="25.2" height="9" class="st1"/>
			</g>
			<g id="shape50-59" v:mID="50" v:groupContext="shape" transform="translate(25.2,0)">
				<title>Sheet.50</title>
				<desc>CRUDTrilho</desc>
				<v:textBlock v:margins="rect(4,4,4,4)" v:tabSpace="42.5197"/>
				<v:textRect cx="45.7449" cy="577.276" width="91.49" height="36"/>
				<rect x="0" y="559.276" width="91.4898" height="36" class="st1"/>
				<text x="5.79" y="581.48" class="st2" v:langID="2070"><v:paragraph v:horizAlign="1"/><v:tabList/>CRUDTrilho</text>			</g>
		</g>
		<g id="group51-62" transform="translate(312.172,-459.496)" v:mID="51" v:groupContext="group">
			<v:userDefs>
				<v:ud v:nameU="visDescription" v:val="VT4(Use to add a system component to your system diagram.)"/>
				<v:ud v:nameU="visVersion" v:val="VT0(15):26"/>
			</v:userDefs>
			<title>Component.51</title>
			<g id="shape52-63" v:mID="52" v:groupContext="shape" transform="translate(12.6,0)">
				<title>Sheet.52</title>
				<rect x="0" y="559.276" width="154.682" height="36" class="st1"/>
			</g>
			<g id="shape53-65" v:mID="53" v:groupContext="shape" transform="translate(0,-22.5)">
				<title>Sheet.53</title>
				<rect x="0" y="586.276" width="25.2" height="9" class="st1"/>
			</g>
			<g id="shape54-67" v:mID="54" v:groupContext="shape" transform="translate(0,-4.5)">
				<title>Sheet.54</title>
				<rect x="0" y="586.276" width="25.2" height="9" class="st1"/>
			</g>
			<g id="shape55-69" v:mID="55" v:groupContext="shape" transform="translate(25.2,0)">
				<title>Sheet.55</title>
				<desc>CRUDPontoInteresse</desc>
				<v:textBlock v:margins="rect(4,4,4,4)" v:tabSpace="42.5197"/>
				<v:textRect cx="71.0412" cy="577.276" width="142.09" height="36"/>
				<rect x="0" y="559.276" width="142.082" height="36" class="st1"/>
				<text x="5.79" y="581.48" class="st2" v:langID="2070"><v:paragraph v:horizAlign="1"/><v:tabList/>CRUDPontoInteresse</text>			</g>
		</g>
		<g id="group56-72" transform="translate(315.795,-402.236)" v:mID="56" v:groupContext="group">
			<v:userDefs>
				<v:ud v:nameU="visDescription" v:val="VT4(Use to add a system component to your system diagram.)"/>
				<v:ud v:nameU="visVersion" v:val="VT0(15):26"/>
			</v:userDefs>
			<title>Component.56</title>
			<g id="shape57-73" v:mID="57" v:groupContext="shape" transform="translate(12.6,0)">
				<title>Sheet.57</title>
				<rect x="0" y="559.276" width="137.777" height="36" class="st1"/>
			</g>
			<g id="shape58-75" v:mID="58" v:groupContext="shape" transform="translate(0,-22.5)">
				<title>Sheet.58</title>
				<rect x="0" y="586.276" width="25.2" height="9" class="st1"/>
			</g>
			<g id="shape59-77" v:mID="59" v:groupContext="shape" transform="translate(0,-4.5)">
				<title>Sheet.59</title>
				<rect x="0" y="586.276" width="25.2" height="9" class="st1"/>
			</g>
			<g id="shape60-79" v:mID="60" v:groupContext="shape" transform="translate(25.2,0)">
				<title>Sheet.60</title>
				<desc>CRUDRestaurante</desc>
				<v:textBlock v:margins="rect(4,4,4,4)" v:tabSpace="42.5197"/>
				<v:textRect cx="62.5886" cy="577.276" width="125.18" height="36"/>
				<rect x="0" y="559.276" width="125.177" height="36" class="st1"/>
				<text x="5.79" y="581.48" class="st2" v:langID="2070"><v:paragraph v:horizAlign="1"/><v:tabList/>CRUDRestaurante</text>			</g>
		</g>
		<g id="group61-82" transform="translate(312.701,-58.6772)" v:mID="61" v:groupContext="group">
			<v:userDefs>
				<v:ud v:nameU="visDescription" v:val="VT4(Use to add a system component to your system diagram.)"/>
				<v:ud v:nameU="visVersion" v:val="VT0(15):26"/>
			</v:userDefs>
			<title>Component.61</title>
			<g id="shape62-83" v:mID="62" v:groupContext="shape" transform="translate(12.6,0)">
				<title>Sheet.62</title>
				<rect x="0" y="559.276" width="152.214" height="36" class="st1"/>
			</g>
			<g id="shape63-85" v:mID="63" v:groupContext="shape" transform="translate(0,-22.5)">
				<title>Sheet.63</title>
				<rect x="0" y="586.276" width="25.2" height="9" class="st1"/>
			</g>
			<g id="shape64-87" v:mID="64" v:groupContext="shape" transform="translate(0,-4.5)">
				<title>Sheet.64</title>
				<rect x="0" y="586.276" width="25.2" height="9" class="st1"/>
			</g>
			<g id="shape65-89" v:mID="65" v:groupContext="shape" transform="translate(25.2,0)">
				<title>Sheet.65</title>
				<desc>ConsultarDificuldade</desc>
				<v:textBlock v:margins="rect(4,4,4,4)" v:tabSpace="42.5197"/>
				<v:textRect cx="69.807" cy="577.276" width="139.62" height="36"/>
				<rect x="0" y="559.276" width="139.614" height="36" class="st1"/>
				<text x="5.79" y="581.48" class="st2" v:langID="2070"><v:paragraph v:horizAlign="1"/><v:tabList/>ConsultarDificuldade</text>			</g>
		</g>
		<g id="group66-92" transform="translate(312.542,-287.717)" v:mID="66" v:groupContext="group">
			<v:userDefs>
				<v:ud v:nameU="visDescription" v:val="VT4(Use to add a system component to your system diagram.)"/>
				<v:ud v:nameU="visVersion" v:val="VT0(15):26"/>
			</v:userDefs>
			<title>Component.66</title>
			<g id="shape67-93" v:mID="67" v:groupContext="shape" transform="translate(12.6,0)">
				<title>Sheet.67</title>
				<rect x="0" y="559.276" width="152.96" height="36" class="st1"/>
			</g>
			<g id="shape68-95" v:mID="68" v:groupContext="shape" transform="translate(0,-22.5)">
				<title>Sheet.68</title>
				<rect x="0" y="586.276" width="25.2" height="9" class="st1"/>
			</g>
			<g id="shape69-97" v:mID="69" v:groupContext="shape" transform="translate(0,-4.5)">
				<title>Sheet.69</title>
				<rect x="0" y="586.276" width="25.2" height="9" class="st1"/>
			</g>
			<g id="shape70-99" v:mID="70" v:groupContext="shape" transform="translate(25.2,0)">
				<title>Sheet.70</title>
				<desc>CRUDAreaDescanso</desc>
				<v:textBlock v:margins="rect(4,4,4,4)" v:tabSpace="42.5197"/>
				<v:textRect cx="70.1799" cy="577.276" width="140.36" height="36"/>
				<rect x="0" y="559.276" width="140.36" height="36" class="st1"/>
				<text x="5.79" y="581.48" class="st2" v:langID="2070"><v:paragraph v:horizAlign="1"/><v:tabList/>CRUDAreaDescanso</text>			</g>
		</g>
		<g id="group76-102" transform="translate(316.819,-344.976)" v:mID="76" v:groupContext="group">
			<v:userDefs>
				<v:ud v:nameU="visDescription" v:val="VT4(Use to add a system component to your system diagram.)"/>
				<v:ud v:nameU="visVersion" v:val="VT0(15):26"/>
			</v:userDefs>
			<title>Component.76</title>
			<g id="shape77-103" v:mID="77" v:groupContext="shape" transform="translate(12.6,0)">
				<title>Sheet.77</title>
				<rect x="0" y="559.276" width="132.999" height="36" class="st1"/>
			</g>
			<g id="shape78-105" v:mID="78" v:groupContext="shape" transform="translate(0,-22.5)">
				<title>Sheet.78</title>
				<rect x="0" y="586.276" width="25.2" height="9" class="st1"/>
			</g>
			<g id="shape79-107" v:mID="79" v:groupContext="shape" transform="translate(0,-4.5)">
				<title>Sheet.79</title>
				<rect x="0" y="586.276" width="25.2" height="9" class="st1"/>
			</g>
			<g id="shape80-109" v:mID="80" v:groupContext="shape" transform="translate(25.2,0)">
				<title>Sheet.80</title>
				<desc>CRUDLocalidade</desc>
				<v:textBlock v:margins="rect(4,4,4,4)" v:tabSpace="42.5197"/>
				<v:textRect cx="60.1993" cy="577.276" width="120.4" height="36"/>
				<rect x="0" y="559.276" width="120.399" height="36" class="st1"/>
				<text x="5.79" y="581.48" class="st2" v:langID="2070"><v:paragraph v:horizAlign="1"/><v:tabList/>CRUDLocalidade</text>			</g>
		</g>
		<g id="group86-112" transform="translate(526.011,-132.661)" v:mID="86" v:groupContext="group">
			<v:userDefs>
				<v:ud v:nameU="visDescription" v:val="VT4(Use to add a system component to your system diagram.)"/>
				<v:ud v:nameU="visVersion" v:val="VT0(15):26"/>
			</v:userDefs>
			<title>Component.86</title>
			<g id="shape87-113" v:mID="87" v:groupContext="shape" transform="translate(12.6,0)">
				<title>Sheet.87</title>
				<rect x="0" y="559.276" width="198.397" height="36" class="st1"/>
			</g>
			<g id="shape88-115" v:mID="88" v:groupContext="shape" transform="translate(0,-22.5)">
				<title>Sheet.88</title>
				<rect x="0" y="586.276" width="25.2" height="9" class="st1"/>
			</g>
			<g id="shape89-117" v:mID="89" v:groupContext="shape" transform="translate(0,-4.5)">
				<title>Sheet.89</title>
				<rect x="0" y="586.276" width="25.2" height="9" class="st1"/>
			</g>
			<g id="shape90-119" v:mID="90" v:groupContext="shape" transform="translate(25.2,0)">
				<title>Sheet.90</title>
				<desc>ConsultarTipoPontoInteresse</desc>
				<v:textBlock v:margins="rect(4,4,4,4)" v:tabSpace="42.5197"/>
				<v:textRect cx="92.8985" cy="577.276" width="185.8" height="36"/>
				<rect x="0" y="559.276" width="185.797" height="36" class="st1"/>
				<text x="5.79" y="581.48" class="st2" v:langID="2070"><v:paragraph v:horizAlign="1"/><v:tabList/>ConsultarTipoPontoInteresse</text>			</g>
		</g>
		<g id="group91-122" transform="translate(314.011,-173.197)" v:mID="91" v:groupContext="group">
			<v:userDefs>
				<v:ud v:nameU="visDescription" v:val="VT4(Use to add a system component to your system diagram.)"/>
				<v:ud v:nameU="visVersion" v:val="VT0(15):26"/>
			</v:userDefs>
			<title>Component.91</title>
			<g id="shape92-123" v:mID="92" v:groupContext="shape" transform="translate(12.6,0)">
				<title>Sheet.92</title>
				<rect x="0" y="559.276" width="146.103" height="36" class="st1"/>
			</g>
			<g id="shape93-125" v:mID="93" v:groupContext="shape" transform="translate(0,-22.5)">
				<title>Sheet.93</title>
				<rect x="0" y="586.276" width="25.2" height="9" class="st1"/>
			</g>
			<g id="shape94-127" v:mID="94" v:groupContext="shape" transform="translate(0,-4.5)">
				<title>Sheet.94</title>
				<rect x="0" y="586.276" width="25.2" height="9" class="st1"/>
			</g>
			<g id="shape95-129" v:mID="95" v:groupContext="shape" transform="translate(25.2,0)">
				<title>Sheet.95</title>
				<desc>ConsultarEpocaAno</desc>
				<v:textBlock v:margins="rect(4,4,4,4)" v:tabSpace="42.5197"/>
				<v:textRect cx="66.7513" cy="577.276" width="133.51" height="36"/>
				<rect x="0" y="559.276" width="133.503" height="36" class="st1"/>
				<text x="5.79" y="581.48" class="st2" v:langID="2070"><v:paragraph v:horizAlign="1"/><v:tabList/>ConsultarEpocaAno</text>			</g>
		</g>
		<g id="shape155-132" v:mID="155" v:groupContext="shape" v:layerMember="0" transform="translate(312.172,-543.756)">
			<title>Dynamic connector</title>
			<path d="M0 595.28 L-159.09 595.28 L-159.09 777.8" class="st4"/>
		</g>
		<g id="shape162-138" v:mID="162" v:groupContext="shape" v:layerMember="0" transform="translate(312.701,-85.6772)">
			<title>Dynamic connector.162</title>
			<path d="M0 595.28 L-159.62 595.28 L-159.62 372.36" class="st4"/>
		</g>
		<g id="shape163-143" v:mID="163" v:groupContext="shape" v:layerMember="0" transform="translate(318.857,-146.799)">
			<title>Dynamic connector.163</title>
			<path d="M0 599.14 C-41.44 599.14 -112.46 599.14 -142.91 600.72 C-152.37 601.21 -157.92 601.85 -161.17 602.55 L-161.47
						 602.75" class="st6"/>
		</g>
		<g id="shape164-149" v:mID="164" v:groupContext="shape" v:layerMember="0" transform="translate(314.011,-203.776)">
			<title>Dynamic connector.164</title>
			<path d="M0 598.85 C-40.23 598.85 -109.17 598.85 -138.73 600.57 C-147.96 601.11 -153.35 601.81 -156.5 602.58 L-156.79
						 602.79" class="st6"/>
		</g>
		<g id="shape165-154" v:mID="165" v:groupContext="shape" v:layerMember="0" transform="translate(315.884,-260.752)">
			<title>Dynamic connector.165</title>
			<path d="M0 598.57 C-40.7 598.57 -110.43 598.57 -140.34 600.43 C-149.89 601.02 -155.39 601.8 -158.54 602.65 L-158.82
						 602.88" class="st6"/>
		</g>
		<g id="shape166-159" v:mID="166" v:groupContext="shape" v:layerMember="0" transform="translate(312.542,-321.501)">
			<title>Dynamic connector.166</title>
			<path d="M0 602.06 C-5.31 602.06 -6.35 602.06 -7.19 602.07 C-10.63 602.11 -10.63 602.31 -15.7 602.44 C-24.6 602.66 -49.16
						 602.66 -87.7 602.66" class="st7"/>
		</g>
		<g id="shape167-165" v:mID="167" v:groupContext="shape" v:layerMember="0" transform="translate(316.819,-371.976)">
			<title>Dynamic connector.167</title>
			<path d="M0 595.28 C-10.63 595.28 -10.63 601.67 -16.93 605.56 C-26.19 611.26 -49.06 611.52 -86.46 611.54 L-86.82 611.54"
					class="st6"/>
		</g>
		<g id="shape168-170" v:mID="168" v:groupContext="shape" v:layerMember="0" transform="translate(315.795,-424.594)">
			<title>Dynamic connector.168</title>
			<path d="M0 590.63 C-40.68 590.63 -110.39 590.63 -140.28 589.44 C-149.13 589.08 -154.49 588.62 -157.73 588.12 L-158.06
						 587.97" class="st6"/>
		</g>
		<g id="shape169-175" v:mID="169" v:groupContext="shape" v:layerMember="0" transform="translate(312.172,-481.571)">
			<title>Dynamic connector.169</title>
			<path d="M0 590.35 C-39.77 590.35 -107.94 590.35 -137.16 589.29 C-145.61 588.99 -150.81 588.59 -154 588.16 L-154.33 588.02"
					class="st6"/>
		</g>
		<g id="shape170-180" v:mID="170" v:groupContext="shape" v:layerMember="0" transform="translate(529.723,-257.457)">
			<title>Dynamic connector.170</title>
			<path d="M0 595.28 C-28.4 595.28 -46.49 595.28 -53.06 593.56 C-56.79 592.59 -56.79 591.06 -56.79 589.69 C-56.79 586.28
						 -56.79 583.88 -60.71 582.3 C-68.41 579.19 -91.21 579.19 -112.34 579.19 C-154.54 579.19 -190.06 579.19 -257.5
						 579.19 C-299.79 579.19 -354.61 579.19 -371.48 576.46 L-371.81 576.33" class="st6"/>
		</g>
		<g id="shape171-185" v:mID="171" v:groupContext="shape" v:layerMember="0" transform="translate(526.011,-155.161)">
			<title>Dynamic connector.171</title>
			<path d="M0 590.78 C-93.23 590.78 -253.05 590.78 -321.55 589.51 C-349.04 589 -361.82 588.29 -367.76 587.54 L-368.1 587.41"
					class="st6"/>
		</g>
		<g id="shape173-190" v:mID="173" v:groupContext="shape" v:layerMember="0" transform="translate(428.862,-536.634)">
			<title>Dynamic connector.173</title>
			<path d="M0 597.15 C10.63 597.15 10.63 600.96 20.44 603.37 C37.05 607.46 81.83 607.57 152.19 607.57 L152.55 607.57"
					class="st8"/>
		</g>
		<g id="shape174-196" v:mID="174" v:groupContext="shape" v:layerMember="0" transform="translate(626.56,-266.457)">
			<title>Dynamic connector.174</title>
			<path d="M0 595.28 C0 587.48 -0 577.28 19 571.53 C42.25 564.49 93.93 564.12 127.61 564.1 L127.97 564.1" class="st8"/>
		</g>
		<g id="shape175-201" v:mID="175" v:groupContext="shape" v:layerMember="0" transform="translate(631.509,-168.661)">
			<title>Dynamic connector.175</title>
			<path d="M0 595.28 C0 580.75 -0 560.98 19.77 550.18 C42.27 537.89 90.39 537.21 122.66 537.17 L123.02 537.17"
					class="st8"/>
		</g>
		<g id="shape176-206" v:mID="176" v:groupContext="shape" v:layerMember="0" transform="translate(477.516,-76.6772)">
			<title>Dynamic connector.176</title>
			<path d="M0 595.28 L282.17 595.28 L282.17 174.61 L253.71 174.61" class="st10"/>
		</g>
		<g id="shape177-212" v:mID="177" v:groupContext="shape" v:layerMember="0" transform="translate(454.946,-133.937)">
			<title>Dynamic connector.177</title>
			<path d="M0 595.28 C31.99 595.28 41.5 595.28 48.18 595.63 C63.98 596.45 63.98 599.24 75.2 600.95 C92.93 603.64 138.63
						 603.64 191.56 603.64 C237.16 603.64 288.13 603.64 301.43 611.42 L301.64 611.7" class="st8"/>
		</g>
		<g id="shape178-217" v:mID="178" v:groupContext="shape" v:layerMember="0" transform="translate(472.714,-187.724)">
			<title>Dynamic connector.178</title>
			<path d="M0 591.8 C71.74 591.8 194.71 591.8 247.42 590.03 C267.51 589.36 277.39 588.43 282.26 587.44 L282.57 587.25"
					class="st8"/>
		</g>
		<g id="shape179-222" v:mID="179" v:groupContext="shape" v:layerMember="0" transform="translate(465.844,-248.457)">
			<title>Dynamic connector.179</title>
			<path d="M0 595.28 C28.4 595.28 45.59 595.28 52.37 592.52 C56.79 590.73 56.79 587.76 56.79 585.27 C56.79 581.04 56.79
						 578.16 58.9 576.05 C64.74 570.19 86.76 570.19 114.62 570.19 C151.67 570.19 199.04 570.19 238.69 570.19 C260.61
						 570.19 280.18 570.19 288.95 571.89 L289.27 572.06" class="st8"/>
		</g>
		<g id="shape180-227" v:mID="180" v:groupContext="shape" v:layerMember="0" transform="translate(478.101,-301.677)">
			<title>Dynamic connector.180</title>
			<path d="M0 591.24 C70.4 591.24 191.06 591.24 242.78 589.74 C262.07 589.19 271.77 588.42 276.65 587.61 L276.97 587.45"
					class="st8"/>
		</g>
		<g id="shape181-232" v:mID="181" v:groupContext="shape" v:layerMember="0" transform="translate(462.418,-358.654)">
			<title>Dynamic connector.181</title>
			<path d="M0 590.95 C74.32 590.95 201.71 590.95 256.31 589.6 C276.88 589.09 287.12 588.39 292.22 587.64 L292.55 587.5"
					class="st8"/>
		</g>
		<g id="shape182-237" v:mID="182" v:groupContext="shape" v:layerMember="0" transform="translate(466.172,-415.63)">
			<title>Dynamic connector.182</title>
			<path d="M0 590.67 C73.38 590.67 199.16 590.67 253.07 589.45 C273.18 589 283.29 588.38 288.38 587.72 L288.71 587.58"
					class="st8"/>
		</g>
		<g id="shape183-242" v:mID="183" v:groupContext="shape" v:layerMember="0" transform="translate(479.455,-472.606)">
			<title>Dynamic connector.183</title>
			<path d="M0 590.39 C70.06 590.39 190.15 590.39 241.62 589.31 C260.43 588.92 270.07 588.38 275.02 587.81 L275.36 587.69"
					class="st8"/>
		</g>
	</g>
</svg>
