<?xml version="1.0" encoding="UTF-8" standalone="no"?>
<!DOCTYPE svg PUBLIC "-//W3C//DTD SVG 1.1//EN" "http://www.w3.org/Graphics/SVG/1.1/DTD/svg11.dtd">
<!-- Generated by Microsoft Visio, SVG Export Diag Estados.svg Page-1 -->
<svg xmlns="http://www.w3.org/2000/svg" xmlns:xlink="http://www.w3.org/1999/xlink" xmlns:ev="http://www.w3.org/2001/xml-events"
		xmlns:v="http://schemas.microsoft.com/visio/2003/SVGExtensions/" width="11.6929in" height="8.26772in"
		viewBox="0 0 841.89 595.276" xml:space="preserve" color-interpolation-filters="sRGB" class="st13">
	<v:documentProperties v:langID="1033" v:metric="true" v:viewMarkup="false">
		<v:userDefs>
			<v:ud v:nameU="msvNoAutoConnect" v:prompt="" v:val="VT0(0):26"/>
		</v:userDefs>
	</v:documentProperties>

	<style type="text/css">
	<![CDATA[
		.st1 {fill:#5b9bd5;stroke:#5b9bd5;stroke-linecap:round;stroke-linejoin:round;stroke-width:0.5}
		.st2 {fill:#73ae42;stroke:#ffffff;stroke-linecap:round;stroke-linejoin:round;stroke-width:0.5}
		.st3 {fill:#73ae42;stroke:#73ae42;stroke-linecap:round;stroke-linejoin:round;stroke-width:0.5}
		.st4 {fill:#ffffff;font-family:Calibri;font-size:1.00001em;font-weight:bold}
		.st5 {fill:#ffffff;stroke:#73ae42;stroke-linecap:round;stroke-linejoin:round;stroke-width:0.5}
		.st6 {fill:#73ae42;font-family:Calibri;font-size:1.00001em}
		.st7 {font-size:1em}
		.st8 {marker-end:url(#mrkr4-24);stroke:#5592c9;stroke-linecap:round;stroke-linejoin:round;stroke-width:0.5}
		.st9 {fill:#5592c9;fill-opacity:1;stroke:#5592c9;stroke-opacity:1;stroke-width:0.16556291390728}
		.st10 {fill:#ffffff;stroke:none;stroke-linecap:butt}
		.st11 {fill:#41719d;font-family:Calibri;font-size:0.666664em}
		.st12 {fill:#ffffff;stroke:none;stroke-linecap:butt;stroke-width:7.2}
		.st13 {fill:none;fill-rule:evenodd;font-size:12px;overflow:visible;stroke-linecap:square;stroke-miterlimit:3}
	]]>
	</style>

	<defs id="Markers">
		<g id="lend4">
			<path d="M 2 1 L 0 0 L 2 -1 L 2 1 " style="stroke:none"/>
		</g>
		<marker id="mrkr4-24" class="st9" v:arrowType="4" v:arrowSize="2" v:setback="12.08" refX="-12.08" orient="auto"
				markerUnits="strokeWidth" overflow="visible">
			<use xlink:href="#lend4" transform="scale(-6.04,-6.04) "/>
		</marker>
	</defs>
	<g v:mID="0" v:index="1" v:groupContext="foregroundPage">
		<v:userDefs>
			<v:ud v:nameU="msvThemeOrder" v:val="VT0(0):26"/>
		</v:userDefs>
		<title>Page-1</title>
		<v:pageProperties v:drawingScale="0.0393701" v:pageScale="0.0393701" v:drawingUnits="24" v:shadowOffsetX="8.50394"
				v:shadowOffsetY="-8.50394"/>
		<v:layer v:name="Connector" v:index="0"/>
		<g id="shape1-1" v:mID="1" v:groupContext="shape" transform="translate(419.051,-459.876)">
			<title>Initial state</title>
			<v:userDefs>
				<v:ud v:nameU="visVersion" v:prompt="" v:val="VT0(15):26"/>
			</v:userDefs>
			<ellipse cx="20.3191" cy="574.956" rx="20.3191" ry="20.3191" class="st1"/>
		</g>
		<g id="group2-3" transform="translate(308.912,-277.319)" v:mID="2" v:groupContext="group">
			<v:userDefs>
				<v:ud v:nameU="visVersion" v:prompt="" v:val="VT0(15):26"/>
			</v:userDefs>
			<title>State with internal behavior</title>
			<g id="shape2-4" v:mID="2" v:groupContext="groupContent">
				<rect x="0" y="490.134" width="260.917" height="105.142" rx="8.50394" ry="8.50394" class="st2"/>
			</g>
			<g id="shape3-6" v:mID="3" v:groupContext="shape" transform="translate(0,-82.7383)">
				<title>Sheet.3</title>
				<desc>Aberto</desc>
				<v:userDefs>
					<v:ud v:nameU="UmlRole" v:prompt="" v:val="VT4(Title)"/>
				</v:userDefs>
				<v:textBlock v:margins="rect(4,4,4,4)" v:tabSpace="42.5197"/>
				<v:textRect cx="130.458" cy="584.074" width="260.92" height="22.4037"/>
				<path d="M8.5 595.28 L252.41 595.28 A8.50394 8.50394 -180 0 0 260.92 586.77 L260.92 581.38 A8.50394 8.50394 -180
							 0 0 252.41 572.87 L8.5 572.87 A8.50394 8.50394 -180 0 0 0 581.38 L0 586.77 A8.50394 8.50394 -180 0 0
							 8.5 595.28 Z" class="st3"/>
				<text x="113.14" y="587.67" class="st4" v:langID="2070"><v:paragraph v:horizAlign="1"/><v:tabList/>Aberto</text>			</g>
			<g id="shape4-9" v:mID="4" v:groupContext="shape">
				<title>Sheet.4</title>
				<desc>entry /dataInicio = dataSistema Causa = novoTrilho ou Causa=B...</desc>
				<v:userDefs>
					<v:ud v:nameU="UmlRole" v:prompt="" v:val="VT4(Body)"/>
				</v:userDefs>
				<v:textBlock v:margins="rect(4,4,4,4)" v:tabSpace="42.5197"/>
				<v:textRect cx="130.458" cy="545.339" width="260.92" height="65.604"/>
				<path d="M8.5 595.28 L252.41 595.28 A8.50394 8.50394 -180 0 0 260.92 586.77 L260.92 521.04 A8.50394 8.50394 -180
							 0 0 252.41 512.54 L8.5 512.54 A8.50394 8.50394 -180 0 0 0 521.04 L0 586.77 A8.50394 8.50394 -180 0 0
							 8.5 595.28 Z" class="st5"/>
				<text x="4" y="527.34" class="st6" v:langID="1033"><v:paragraph/><v:tabList/>entry /<tspan class="st7"
							v:langID="2070">dataInicio = dataSistema<v:newlineChar/></tspan><tspan x="4" dy="1.2em" class="st7"
							v:langID="2070">Causa = novoTrilho</tspan> <tspan class="st7" v:langID="2070"> </tspan><tspan
							class="st7" v:langID="2070">ou Causa=Bom Tempo<v:newlineChar/></tspan><tspan x="4" dy="1.2em"
							class="st7">do / </tspan><tspan class="st7" v:langID="2070">dataFimAnterior = Atualizada<v:newlineChar/></tspan><tspan
							x="4" dy="1.2em" class="st7">exit / </tspan> </text>			</g>
		</g>
		<g id="shape5-19" v:mID="5" v:groupContext="shape" v:layerMember="0" transform="translate(432.283,-459.876)">
			<title>Dynamic connector</title>
			<desc>[Criar Trilho]</desc>
			<v:textBlock v:margins="rect(4,4,4,4)" v:tabSpace="42.5197"/>
			<v:textRect cx="7.08661" cy="633.984" width="50.83" height="17.6036"/>
			<path d="M7.09 595.28 L7.09 666.65" class="st8"/>
			<rect v:rectContext="textBkgnd" x="-13.4173" y="629.184" width="41.0081" height="9.59985" class="st10"/>
			<text x="-13.42" y="636.38" class="st11" v:langID="2070"><v:paragraph v:horizAlign="1"/><v:tabList/>[Criar Trilho]</text>		</g>
		<g id="group6-27" transform="translate(334.095,-94.7609)" v:mID="6" v:groupContext="group">
			<v:userDefs>
				<v:ud v:nameU="visVersion" v:prompt="" v:val="VT0(15):26"/>
			</v:userDefs>
			<title>State with internal behavior.6</title>
			<g id="shape6-28" v:mID="6" v:groupContext="groupContent">
				<rect x="0" y="490.134" width="210.551" height="105.142" rx="8.50394" ry="8.50394" class="st2"/>
			</g>
			<g id="shape7-30" v:mID="7" v:groupContext="shape" transform="translate(0,-82.7383)">
				<title>Sheet.7</title>
				<desc>Fechado</desc>
				<v:userDefs>
					<v:ud v:nameU="UmlRole" v:prompt="" v:val="VT4(Title)"/>
				</v:userDefs>
				<v:textBlock v:margins="rect(4,4,4,4)" v:tabSpace="42.5197"/>
				<v:textRect cx="105.276" cy="584.074" width="210.56" height="22.4037"/>
				<path d="M8.5 595.28 L202.05 595.28 A8.50394 8.50394 -180 0 0 210.55 586.77 L210.55 581.38 A8.50394 8.50394 -180
							 0 0 202.05 572.87 L8.5 572.87 A8.50394 8.50394 -180 0 0 -0 581.38 L0 586.77 A8.50394 8.50394 -180 0
							 0 8.5 595.28 Z" class="st3"/>
				<text x="84.36" y="587.67" class="st4" v:langID="2070"><v:paragraph v:horizAlign="1"/><v:tabList/>Fechado</text>			</g>
			<g id="shape8-33" v:mID="8" v:groupContext="shape">
				<title>Sheet.8</title>
				<desc>entry / dataInicio = dataSistema Causa = Mau Tempo do / dataF...</desc>
				<v:userDefs>
					<v:ud v:nameU="UmlRole" v:prompt="" v:val="VT4(Body)"/>
				</v:userDefs>
				<v:textBlock v:margins="rect(4,4,4,4)" v:tabSpace="42.5197"/>
				<v:textRect cx="105.276" cy="545.339" width="210.56" height="65.604"/>
				<path d="M8.5 595.28 L202.05 595.28 A8.50394 8.50394 -180 0 0 210.55 586.77 L210.55 521.04 A8.50394 8.50394 -180
							 0 0 202.05 512.54 L8.5 512.54 A8.50394 8.50394 -180 0 0 -0 521.04 L0 586.77 A8.50394 8.50394 -180 0
							 0 8.5 595.28 Z" class="st5"/>
				<text x="4" y="527.34" class="st6" v:langID="1033"><v:paragraph/><v:tabList/>entry / <tspan class="st7"
							v:langID="2070">dataInicio = dataSistema<v:newlineChar/></tspan><tspan x="4" dy="1.2em" class="st7"
							v:langID="2070">Causa = Mau Tempo<v:newlineChar/></tspan><tspan x="4" dy="1.2em" class="st7">do / </tspan><tspan
							class="st7" v:langID="2070">dataFimAnterior = Atualizada<v:newlineChar/></tspan><tspan x="4" dy="1.2em"
							class="st7">exit / </tspan> </text>			</g>
		</g>
		<g id="shape9-41" v:mID="9" v:groupContext="shape" v:layerMember="0" transform="translate(432.283,-277.319)">
			<title>Dynamic connector.9</title>
			<desc>[Alterar Estado Mau Tempo] (EditarTrilho)</desc>
			<v:textBlock v:margins="rect(4,4,4,4)" v:tabSpace="42.5197"/>
			<v:textRect cx="7.08661" cy="633.984" width="102.22" height="27.2035"/>
			<path d="M7.09 595.28 L7.09 666.65" class="st8"/>
			<rect v:rectContext="textBkgnd" x="-39.1142" y="624.384" width="92.4019" height="19.1997" class="st10"/>
			<text x="-39.11" y="631.58" class="st11" v:langID="2070"><v:paragraph v:horizAlign="1"/><v:tabList/>[Alterar Estado Mau Tempo]<v:newlineChar/><tspan
						x="-14.35" dy="1.2em" class="st7">(EditarTrilho)</tspan></text>		</g>
		<g id="shape10-49" v:mID="10" v:groupContext="shape" v:layerMember="0" transform="translate(334.095,-147.332)">
			<title>Dynamic connector.10</title>
			<desc>[Alterar Estado Bom Tempo] (EditarTrilho)</desc>
			<v:textBlock v:margins="rect(4,4,4,4)" v:tabSpace="42.5197"/>
			<v:textRect cx="-36" cy="516.588" width="102.3" height="27.2035"/>
			<path d="M0 595.28 L-36 595.28 L-36 412.72 L-31.22 412.72" class="st8"/>
			<rect v:rectContext="textBkgnd" x="-82.2437" y="506.988" width="92.4876" height="19.1997" class="st12"/>
			<text x="-82.24" y="514.19" class="st11" v:langID="2070"><v:paragraph v:horizAlign="1"/><v:tabList/>[Alterar Estado Bom Tempo]<v:newlineChar/><tspan
						x="-57.44" dy="1.2em" class="st7">(EditarTrilho)</tspan></text>		</g>
	</g>
</svg>
