<?xml version="1.0" encoding="UTF-8" standalone="no"?>
<!DOCTYPE svg PUBLIC "-//W3C//DTD SVG 1.1//EN" "http://www.w3.org/Graphics/SVG/1.1/DTD/svg11.dtd">
<!-- Generated by Microsoft Visio, SVG Export DIagrama_Instalacao.svg Page-1 -->
<svg xmlns="http://www.w3.org/2000/svg" xmlns:xlink="http://www.w3.org/1999/xlink" xmlns:ev="http://www.w3.org/2001/xml-events"
		xmlns:v="http://schemas.microsoft.com/visio/2003/SVGExtensions/" width="11.6929in" height="8.26772in"
		viewBox="0 0 841.89 595.276" xml:space="preserve" color-interpolation-filters="sRGB" class="st41">
	<v:documentProperties v:langID="2070" v:metric="true" v:viewMarkup="false">
		<v:userDefs>
			<v:ud v:nameU="msvNoAutoConnect" v:val="VT0(1):26"/>
		</v:userDefs>
	</v:documentProperties>

	<style type="text/css">
	<![CDATA[
		.st1 {fill:#ff00ff;fill-opacity:0;stroke:#383872;stroke-linecap:round;stroke-linejoin:round;stroke-opacity:0;stroke-width:2.16}
		.st2 {stroke:#1f477d;stroke-linecap:round;stroke-linejoin:round;stroke-width:2.16}
		.st3 {fill:url(#grad0-19);stroke:#000000;stroke-linecap:round;stroke-linejoin:round;stroke-width:2.16}
		.st4 {fill:url(#grad1-23);stroke:none;stroke-linecap:round;stroke-linejoin:round;stroke-width:2.16}
		.st5 {fill:#ffffff;font-family:Calibri;font-size:2.50001em}
		.st6 {fill:#ff00ff;fill-opacity:0;stroke:#000000;stroke-linecap:round;stroke-linejoin:round;stroke-opacity:0;stroke-width:0.72}
		.st7 {fill:url(#grad0-38)}
		.st8 {stroke:#ffffff;stroke-linecap:round;stroke-linejoin:round;stroke-width:0.36}
		.st9 {fill:url(#grad11-43)}
		.st10 {stroke:#a78450;stroke-linecap:round;stroke-linejoin:round;stroke-width:0.36}
		.st11 {fill:url(#grad12-50);stroke:#ffffff;stroke-linecap:round;stroke-linejoin:round;stroke-width:0.36}
		.st12 {stroke:#000000;stroke-linecap:round;stroke-linejoin:round;stroke-width:1.5}
		.st13 {fill:url(#grad12-59);stroke:#000000;stroke-linecap:round;stroke-linejoin:round;stroke-width:0.36}
		.st14 {stroke:#000000;stroke-linecap:round;stroke-linejoin:round;stroke-width:0.6}
		.st15 {fill:#000000;stroke:#000000;stroke-linecap:round;stroke-linejoin:round;stroke-width:0.36}
		.st16 {fill:url(#grad8-75);stroke:#ffffff;stroke-linecap:round;stroke-linejoin:round;stroke-width:0.12}
		.st17 {fill:url(#grad10-80);stroke:none;stroke-linecap:round;stroke-linejoin:round;stroke-width:0.12}
		.st18 {fill:#000000;stroke:none;stroke-linecap:round;stroke-linejoin:round;stroke-width:0.24}
		.st19 {stroke:#000000;stroke-linecap:round;stroke-linejoin:round;stroke-width:0.36}
		.st20 {fill:#000000;font-family:Calibri;font-size:1.00001em}
		.st21 {fill:#ff00ff;fill-opacity:0}
		.st22 {stroke:#000000;stroke-linecap:round;stroke-linejoin:round;stroke-opacity:0;stroke-width:0.72}
		.st23 {fill:url(#grad0-103);stroke:#ffffff;stroke-linecap:round;stroke-linejoin:round;stroke-width:0.72}
		.st24 {fill:url(#grad11-107)}
		.st25 {stroke:#000000;stroke-linecap:round;stroke-linejoin:round;stroke-width:0.72}
		.st26 {font-size:1em}
		.st27 {fill:url(#grad12-123);stroke:#ffffff;stroke-linecap:round;stroke-linejoin:round;stroke-width:0.72}
		.st28 {fill:url(#grad11-107);stroke:#000000;stroke-linecap:round;stroke-linejoin:round;stroke-width:0.72}
		.st29 {fill:#ffffff;stroke:none;stroke-linecap:round;stroke-linejoin:round;stroke-width:0.24}
		.st30 {fill:#969696;stroke:none;stroke-linecap:round;stroke-linejoin:round;stroke-width:0.24}
		.st31 {fill:#808080;stroke:#808080;stroke-linecap:round;stroke-linejoin:round;stroke-width:0.36}
		.st32 {stroke:#ffffff;stroke-linecap:round;stroke-linejoin:round;stroke-width:0.72}
		.st33 {fill:none;stroke:#000000;stroke-linecap:round;stroke-linejoin:round;stroke-width:1.5}
		.st34 {fill:#000000;stroke:#000000;stroke-linecap:round;stroke-linejoin:round;stroke-width:0.12}
		.st35 {fill:#b3b3b3;fill-opacity:0.6;stroke:#000000;stroke-linecap:round;stroke-linejoin:round;stroke-width:0.24}
		.st36 {fill:url(#grad3-193);stroke:#000000;stroke-linecap:round;stroke-linejoin:round;stroke-width:0.12}
		.st37 {fill:url(#grad10-197);stroke:#000000;stroke-linecap:round;stroke-linejoin:round;stroke-width:0.72}
		.st38 {fill:url(#grad12-287);stroke:#ffffff;stroke-linecap:round;stroke-linejoin:round;stroke-width:0.72}
		.st39 {fill:url(#grad0-296);stroke:#ffffff;stroke-linecap:round;stroke-linejoin:round;stroke-width:0.72}
		.st40 {fill:url(#grad11-303);stroke:#000000;stroke-linecap:round;stroke-linejoin:round;stroke-width:0.72}
		.st41 {fill:none;fill-rule:evenodd;font-size:12px;overflow:visible;stroke-linecap:square;stroke-miterlimit:3}
	]]>
	</style>

	<defs id="Patterns_And_Gradients">
		<radialGradient id="grad1-7" cx="1" cy="1" r="1.4">
			<stop offset="0" stop-color="#000000" stop-opacity="1"/>
			<stop offset="1" stop-color="#000000" stop-opacity="1"/>
		</radialGradient>
		<linearGradient id="grad0-19" x1="0" y1="0" x2="1" y2="0" gradientTransform="rotate(270 0.5 0.5)">
			<stop offset="0" stop-color="#000000" stop-opacity="1"/>
			<stop offset="1" stop-color="#4e8ec2" stop-opacity="1"/>
		</linearGradient>
		<radialGradient id="grad1-23" cx="1" cy="1" r="1.4">
			<stop offset="0" stop-color="#000000" stop-opacity="1"/>
			<stop offset="1" stop-color="#4e8ec2" stop-opacity="1"/>
		</radialGradient>
		<linearGradient id="grad0-38" x1="0" y1="0" x2="1" y2="0" gradientTransform="rotate(270 0.5 0.5)">
			<stop offset="0" stop-color="#ffffff" stop-opacity="1"/>
			<stop offset="1" stop-color="#e1d8c1" stop-opacity="1"/>
		</linearGradient>
		<pattern id="grad11-43" x="0" y="0" width="1" height="1" patternContentUnits="objectBoundingBox">
			<path d="M 0 1 L 0 0 L 1 0 z" style="fill:url(#grad0-44)"/>
			<path d="M 0 1 L 1 1 L 1 0 z" style="fill:url(#grad0-45)"/>
		</pattern>
		<linearGradient id="grad0-44" x1="0" y1="0" x2="1" y2="0" gradientTransform="rotate(180 0.5 0.5)">
			<stop offset="0" stop-color="#ffffff" stop-opacity="1"/>
			<stop offset="1" stop-color="#c9ba96" stop-opacity="1"/>
		</linearGradient>
		<linearGradient id="grad0-45" x1="0" y1="0" x2="1" y2="0" gradientTransform="rotate(90 0.5 0.5)">
			<stop offset="0" stop-color="#ffffff" stop-opacity="1"/>
			<stop offset="1" stop-color="#c9ba96" stop-opacity="1"/>
		</linearGradient>
		<pattern id="grad12-50" x="0" y="0" width="1" height="1" patternContentUnits="objectBoundingBox">
			<path d="M 0 0 L 0 1 L 1 1 z" style="fill:url(#grad0-51)"/>
			<path d="M 0 0 L 1 0 L 1 1 z" style="fill:url(#grad0-52)"/>
		</pattern>
		<linearGradient id="grad0-51" x1="0" y1="0" x2="1" y2="0" gradientTransform="rotate(90 0.5 0.5)">
			<stop offset="0" stop-color="#ffffff" stop-opacity="1"/>
			<stop offset="1" stop-color="#b6a06d" stop-opacity="1"/>
		</linearGradient>
		<linearGradient id="grad0-52" x1="0" y1="0" x2="1" y2="0" gradientTransform="rotate(360 0.5 0.5)">
			<stop offset="0" stop-color="#ffffff" stop-opacity="1"/>
			<stop offset="1" stop-color="#b6a06d" stop-opacity="1"/>
		</linearGradient>
		<pattern id="grad12-59" x="0" y="0" width="1" height="1" patternContentUnits="objectBoundingBox">
			<path d="M 0 0 L 0 1 L 1 1 z" style="fill:url(#grad0-60)"/>
			<path d="M 0 0 L 1 0 L 1 1 z" style="fill:url(#grad0-61)"/>
		</pattern>
		<linearGradient id="grad0-60" x1="0" y1="0" x2="1" y2="0" gradientTransform="rotate(90 0.5 0.5)">
			<stop offset="0" stop-color="#ffffff" stop-opacity="1"/>
			<stop offset="1" stop-color="#339966" stop-opacity="1"/>
		</linearGradient>
		<linearGradient id="grad0-61" x1="0" y1="0" x2="1" y2="0" gradientTransform="rotate(360 0.5 0.5)">
			<stop offset="0" stop-color="#ffffff" stop-opacity="1"/>
			<stop offset="1" stop-color="#339966" stop-opacity="1"/>
		</linearGradient>
		<linearGradient id="grad0-65" x1="0" y1="0" x2="1" y2="0" gradientTransform="rotate(270 0.5 0.5)">
			<stop offset="0" stop-color="#ffffff" stop-opacity="1"/>
			<stop offset="1" stop-color="#e7e4cd" stop-opacity="1"/>
		</linearGradient>
		<pattern id="grad8-75" x="0" y="0" width="1" height="1" patternContentUnits="objectBoundingBox">
			<path d="M 0 0 L 1 0 L 1 1 z" style="fill:url(#grad0-65)"/>
			<path d="M 0 0 L 0 1 L 1 1 z" style="fill:url(#grad0-76)"/>
		</pattern>
		<linearGradient id="grad0-76" x1="0" y1="0" x2="1" y2="0" gradientTransform="rotate(180 0.5 0.5)">
			<stop offset="0" stop-color="#ffffff" stop-opacity="1"/>
			<stop offset="1" stop-color="#e7e4cd" stop-opacity="1"/>
		</linearGradient>
		<pattern id="grad10-80" x="0" y="0" width="1" height="1" patternContentUnits="objectBoundingBox">
			<path d="M 0.5 0.5 L 0 0 L 0 1 z" style="fill:url(#grad0-81)"/>
			<path d="M 0.5 0.5 L 1 0 L 1 1 z" style="fill:url(#grad0-82)"/>
			<path d="M 0.5 0.5 L 0 0 L 1 0 z" style="fill:url(#grad0-83)"/>
			<path d="M 0.5 0.5 L 0 1 L 1 1 z" style="fill:url(#grad0-84)"/>
		</pattern>
		<linearGradient id="grad0-81" x1="0" y1="0" x2="1" y2="0" gradientTransform="rotate(180 0.5 0.5)">
			<stop offset="0" stop-color="#000000" stop-opacity="0.4"/>
			<stop offset="1" stop-color="#e7e4cd" stop-opacity="0.4"/>
		</linearGradient>
		<linearGradient id="grad0-82" x1="0" y1="0" x2="1" y2="0" gradientTransform="rotate(360 0.5 0.5)">
			<stop offset="0" stop-color="#000000" stop-opacity="0.4"/>
			<stop offset="1" stop-color="#e7e4cd" stop-opacity="0.4"/>
		</linearGradient>
		<linearGradient id="grad0-83" x1="0" y1="0" x2="1" y2="0" gradientTransform="rotate(270 0.5 0.5)">
			<stop offset="0" stop-color="#000000" stop-opacity="0.4"/>
			<stop offset="1" stop-color="#e7e4cd" stop-opacity="0.4"/>
		</linearGradient>
		<linearGradient id="grad0-84" x1="0" y1="0" x2="1" y2="0" gradientTransform="rotate(90 0.5 0.5)">
			<stop offset="0" stop-color="#000000" stop-opacity="0.4"/>
			<stop offset="1" stop-color="#e7e4cd" stop-opacity="0.4"/>
		</linearGradient>
		<linearGradient id="grad0-103" x1="0" y1="0" x2="1" y2="0" gradientTransform="rotate(270 0.5 0.5)">
			<stop offset="0" stop-color="#ffffff" stop-opacity="1"/>
			<stop offset="1" stop-color="#dfdfdf" stop-opacity="1"/>
		</linearGradient>
		<pattern id="grad11-107" x="0" y="0" width="1" height="1" patternContentUnits="objectBoundingBox">
			<path d="M 0 1 L 0 0 L 1 0 z" style="fill:url(#grad0-108)"/>
			<path d="M 0 1 L 1 1 L 1 0 z" style="fill:url(#grad0-109)"/>
		</pattern>
		<linearGradient id="grad0-108" x1="0" y1="0" x2="1" y2="0" gradientTransform="rotate(180 0.5 0.5)">
			<stop offset="0" stop-color="#ffffff" stop-opacity="1"/>
			<stop offset="1" stop-color="#c0c0c0" stop-opacity="1"/>
		</linearGradient>
		<linearGradient id="grad0-109" x1="0" y1="0" x2="1" y2="0" gradientTransform="rotate(90 0.5 0.5)">
			<stop offset="0" stop-color="#ffffff" stop-opacity="1"/>
			<stop offset="1" stop-color="#c0c0c0" stop-opacity="1"/>
		</linearGradient>
		<pattern id="grad12-123" x="0" y="0" width="1" height="1" patternContentUnits="objectBoundingBox">
			<path d="M 0 0 L 0 1 L 1 1 z" style="fill:url(#grad0-124)"/>
			<path d="M 0 0 L 1 0 L 1 1 z" style="fill:url(#grad0-125)"/>
		</pattern>
		<linearGradient id="grad0-124" x1="0" y1="0" x2="1" y2="0" gradientTransform="rotate(90 0.5 0.5)">
			<stop offset="0" stop-color="#ffffff" stop-opacity="1"/>
			<stop offset="1" stop-color="#a7a7a7" stop-opacity="1"/>
		</linearGradient>
		<linearGradient id="grad0-125" x1="0" y1="0" x2="1" y2="0" gradientTransform="rotate(360 0.5 0.5)">
			<stop offset="0" stop-color="#ffffff" stop-opacity="1"/>
			<stop offset="1" stop-color="#a7a7a7" stop-opacity="1"/>
		</linearGradient>
		<radialGradient id="grad3-193" cx="0.5" cy="0.5" r="0.73">
			<stop offset="0" stop-color="#ffffff" stop-opacity="1"/>
			<stop offset="1" stop-color="#008000" stop-opacity="1"/>
		</radialGradient>
		<pattern id="grad10-197" x="0" y="0" width="1" height="1" patternContentUnits="objectBoundingBox">
			<path d="M 0.5 0.5 L 0 0 L 0 1 z" style="fill:url(#grad0-198)"/>
			<path d="M 0.5 0.5 L 1 0 L 1 1 z" style="fill:url(#grad0-199)"/>
			<path d="M 0.5 0.5 L 0 0 L 1 0 z" style="fill:url(#grad0-200)"/>
			<path d="M 0.5 0.5 L 0 1 L 1 1 z" style="fill:url(#grad0-201)"/>
		</pattern>
		<linearGradient id="grad0-198" x1="0" y1="0" x2="1" y2="0" gradientTransform="rotate(180 0.5 0.5)">
			<stop offset="0" stop-color="#ffffff" stop-opacity="1"/>
			<stop offset="1" stop-color="#c6d1e3" stop-opacity="1"/>
		</linearGradient>
		<linearGradient id="grad0-199" x1="0" y1="0" x2="1" y2="0" gradientTransform="rotate(360 0.5 0.5)">
			<stop offset="0" stop-color="#ffffff" stop-opacity="1"/>
			<stop offset="1" stop-color="#c6d1e3" stop-opacity="1"/>
		</linearGradient>
		<linearGradient id="grad0-200" x1="0" y1="0" x2="1" y2="0" gradientTransform="rotate(270 0.5 0.5)">
			<stop offset="0" stop-color="#ffffff" stop-opacity="1"/>
			<stop offset="1" stop-color="#c6d1e3" stop-opacity="1"/>
		</linearGradient>
		<linearGradient id="grad0-201" x1="0" y1="0" x2="1" y2="0" gradientTransform="rotate(90 0.5 0.5)">
			<stop offset="0" stop-color="#ffffff" stop-opacity="1"/>
			<stop offset="1" stop-color="#c6d1e3" stop-opacity="1"/>
		</linearGradient>
		<pattern id="grad12-287" x="0" y="0" width="1" height="1" patternContentUnits="objectBoundingBox">
			<path d="M 0 0 L 0 1 L 1 1 z" style="fill:url(#grad0-288)"/>
			<path d="M 0 0 L 1 0 L 1 1 z" style="fill:url(#grad0-289)"/>
		</pattern>
		<linearGradient id="grad0-288" x1="0" y1="0" x2="1" y2="0" gradientTransform="rotate(90 0.5 0.5)">
			<stop offset="0" stop-color="#ffffff" stop-opacity="1"/>
			<stop offset="1" stop-color="#ffffff" stop-opacity="1"/>
		</linearGradient>
		<linearGradient id="grad0-289" x1="0" y1="0" x2="1" y2="0" gradientTransform="rotate(360 0.5 0.5)">
			<stop offset="0" stop-color="#ffffff" stop-opacity="1"/>
			<stop offset="1" stop-color="#ffffff" stop-opacity="1"/>
		</linearGradient>
		<linearGradient id="grad0-296" x1="0" y1="0" x2="1" y2="0" gradientTransform="rotate(270 0.5 0.5)">
			<stop offset="0" stop-color="#ffffff" stop-opacity="1"/>
			<stop offset="1" stop-color="#ffffff" stop-opacity="1"/>
		</linearGradient>
		<pattern id="grad11-303" x="0" y="0" width="1" height="1" patternContentUnits="objectBoundingBox">
			<path d="M 0 1 L 0 0 L 1 0 z" style="fill:url(#grad0-304)"/>
			<path d="M 0 1 L 1 1 L 1 0 z" style="fill:url(#grad0-288)"/>
		</pattern>
		<linearGradient id="grad0-304" x1="0" y1="0" x2="1" y2="0" gradientTransform="rotate(180 0.5 0.5)">
			<stop offset="0" stop-color="#ffffff" stop-opacity="1"/>
			<stop offset="1" stop-color="#ffffff" stop-opacity="1"/>
		</linearGradient>
	</defs>
	<g v:mID="0" v:index="1" v:groupContext="foregroundPage">
		<title>Page-1</title>
		<v:pageProperties v:drawingScale="0.0393701" v:pageScale="0.0393701" v:drawingUnits="24" v:shadowOffsetX="8.50394"
				v:shadowOffsetY="-8.50394"/>
		<v:layer v:name="Connector" v:index="0"/>
		<g id="group1-1" transform="translate(342.022,-262.205)" v:mID="1" v:groupContext="group">
			<v:custProps>
				<v:cp v:nameU="ShapeClass" v:lbl="ShapeClass" v:type="0" v:invis="true" v:ask="false" v:langID="1033"
						v:val="VT4(Location)"/>
				<v:cp v:nameU="ShapeType" v:lbl="ShapeType" v:type="0" v:invis="true" v:ask="false" v:langID="1033"
						v:val="VT4(Conceptual)"/>
				<v:cp v:nameU="SubShapeType" v:lbl="SubShapeType" v:type="0" v:invis="true" v:ask="false" v:langID="1033"
						v:val="VT4(Cloud)"/>
			</v:custProps>
			<v:userDefs>
				<v:ud v:nameU="visVersion" v:val="VT0(15):26"/>
				<v:ud v:nameU="visLegendShape" v:val="VT0(2):26"/>
				<v:ud v:nameU="SolSH" v:val="VT15({BF0433D9-CD73-4EB5-8390-8653BE590246}):41"/>
				<v:ud v:nameU="ShapeClass" v:val="VT0(6):26"/>
				<v:ud v:nameU="ShapeType" v:val="VT0(7):26"/>
				<v:ud v:nameU="SubShapeType" v:val="VT0(8):26"/>
			</v:userDefs>
			<title>Cloud</title>
			<desc>Internet</desc>
			<g id="shape2-2" v:mID="2" v:groupContext="shape">
				<title>Sheet.2</title>
				<path d="M10.04 535.16 A12.919 17.3233 -180 0 0 9.66 568.81 A16.072 21.5512 -180 0 0 30.19 576.97 A6.97735 9.35605
							 -180 0 0 41.98 584.11 A21.4563 28.7712 -180 0 0 73.19 588.02 A24.4072 20.9194 -75.29 0 0 89.29 586.23
							 A20.0806 15.408 -98.64 0 0 107.89 577.18 A11.134 8.37417 -94.8 0 0 122.21 574.42 A19.2757 25.8472 -180
							 0 0 144.26 544.34 A9.17911 12.3084 -180 0 0 139.7 521.39 A15.2933 20.507 -180 0 0 122.21 493.86 A11.8953
							 15.9506 -180 0 0 99.39 493.35 A17.8591 23.9476 -180 0 0 82.28 496.41 A8.50853 11.4092 -180 0 0 68.59
							 509.16 A14.9483 20.0444 -180 0 0 42.36 516.3 A21.4223 28.7256 -180 0 0 10.04 535.16 Z" class="st1"/>
			</g>
			<g id="shape3-4" v:mID="3" v:groupContext="shape">
				<title>Sheet.3</title>
				<path d="M37.2 567 L74.41 538.72" class="st2"/>
				<path d="M74.41 578.31 L74.41 538.72" class="st2"/>
				<path d="M111.61 567 L74.41 538.72" class="st2"/>
				<path d="M130.22 538.72 L74.41 538.72" class="st2"/>
				<path d="M111.61 510.45 L74.41 538.72" class="st2"/>
				<path d="M74.41 496.31 L74.41 538.72" class="st2"/>
				<path d="M48.83 515.16 L74.41 538.72" class="st2"/>
				<path d="M18.6 538.72 L74.41 538.72" class="st2"/>
			</g>
			<g id="shape4-16" v:mID="4" v:groupContext="shape">
				<title>Sheet.4</title>
				<path d="M10.04 535.16 A21.4223 28.7256 0 0 1 42.36 516.3 A14.9483 20.0444 0 0 1 68.59 509.16 A8.50853 11.4092 0
							 0 1 82.28 496.41 A17.8591 23.9476 0 0 1 99.39 493.35 A11.8953 15.9506 0 0 1 122.21 493.86 A15.2933 20.507
							 0 0 1 139.7 521.39 A9.17911 12.3084 0 0 1 144.26 544.34 A19.2757 25.8472 0 0 1 122.21 574.42 A11.134
							 8.37417 85.2 0 1 107.89 577.18 A20.0806 15.408 81.36 0 1 89.29 586.23 A24.4072 20.9194 104.71 0 1 73.19
							 588.02 A21.4563 28.7712 0 0 1 41.98 584.11 A6.97735 9.35605 0 0 1 30.19 576.97 A16.072 21.5512 0 0 1
							 9.66 568.81 A12.919 17.3233 0 0 1 10.04 535.16 Z" class="st3"/>
			</g>
			<g id="shape5-20" v:mID="5" v:groupContext="shape" transform="translate(8.55709,-22.6205)">
				<title>Sheet.5</title>
				<path d="M7.63 568.83 A16.281 12.6392 0 0 1 32.19 560.52 A11.3607 8.81954 0 0 1 52.13 557.38 A6.46649 5.02007 0 0
							 1 62.54 551.78 A13.5729 10.5369 0 0 1 75.54 550.43 A9.04043 7.01827 0 0 1 92.88 550.65 A11.6229 9.02308
							 0 0 1 106.17 562.77 A6.97613 5.41571 0 0 1 109.64 572.86 A14.6496 11.3728 0 0 1 92.88 586.1 A7.35266
							 5.70803 0 0 1 80.16 585.2 A10.5907 8.22181 0 0 1 59.93 583.86 A15.0365 11.6731 0 0 1 55.63 592.08 A16.3068
							 12.6593 0 0 1 31.9 590.36 A5.30278 4.11666 0 0 1 22.95 587.22 A12.2147 9.48255 0 0 1 7.34 583.63 A9.81845
							 7.62227 0 0 1 7.63 568.83 Z" class="st4"/>
			</g>
			<g id="shape6-24" v:mID="6" v:groupContext="shape" transform="translate(70.689,-56.5512)">
				<title>Sheet.6</title>
				<path d="M3.87 568.83 A8.24759 12.6392 0 0 1 16.31 560.52 A5.75508 8.81954 0 0 1 26.41 557.38 A3.27579 5.02007 0
							 0 1 31.68 551.78 A6.87575 10.5369 0 0 1 38.27 550.43 A4.57969 7.01827 0 0 1 47.05 550.65 A5.8879 9.02308
							 0 0 1 53.78 562.77 A3.53396 5.41571 0 0 1 55.54 572.86 A7.42115 11.3728 0 0 1 47.05 586.1 A3.7247 5.70803
							 0 0 1 40.61 585.2 A5.36504 8.22181 0 0 1 30.36 583.86 A7.61715 11.6731 0 0 1 28.18 592.08 A8.26069 12.6593
							 0 0 1 16.16 590.36 A2.68628 4.11666 0 0 1 11.62 587.22 A6.18772 9.48255 0 0 1 3.72 583.63 A4.97382 7.62227
							 0 0 1 3.87 568.83 Z" class="st4"/>
			</g>
			<g id="shape7-27" v:mID="7" v:groupContext="shape" transform="translate(83.7106,-30.5523)">
				<title>Sheet.7</title>
				<path d="M3.76 579.66 A8.03337 7.46119 0 0 1 15.88 574.76 A5.6056 5.20634 0 0 1 25.72 572.91 A3.1907 2.96344 0 0
							 1 30.86 569.6 A6.69716 6.22015 0 0 1 37.27 568.8 A4.46074 4.14302 0 0 1 45.83 568.93 A5.73497 5.3265
							 0 0 1 52.39 576.09 A3.44217 3.197 0 0 1 54.1 582.05 A7.2284 6.71355 0 0 1 45.83 589.86 A3.62796 3.36956
							 0 0 1 39.55 589.33 A5.22569 4.85349 0 0 1 29.57 588.53 A7.4193 6.89086 0 0 1 27.45 593.39 A8.04613 7.47304
							 0 0 1 15.74 592.37 A2.6165 2.43014 0 0 1 11.32 590.52 A6.027 5.59773 0 0 1 3.62 588.4 A4.84463 4.49957
							 0 0 1 3.76 579.66 Z" class="st4"/>
			</g>
			<g id="shape1-30" v:mID="1" v:groupContext="groupContent">
				<v:textBlock v:margins="rect(0,0,0,0)" v:tabSpace="42.5197"/>
				<v:textRect cx="74.4094" cy="538.724" width="106.28" height="36.0037"/>
				<text x="24.66" y="547.72" class="st5" v:langID="2070"><v:paragraph v:horizAlign="1"/><v:tabList/>Internet</text>			</g>
		</g>
		<g id="group8-32" transform="translate(369.66,-439.37)" v:mID="8" v:groupContext="group">
			<v:custProps>
				<v:cp v:nameU="Manufacturer" v:lbl="Manufacturer" v:type="0" v:sortKey="Equipment" v:invis="false" v:ask="false"
						v:langID="1033"/>
				<v:cp v:nameU="ProductNumber" v:lbl="Product Number" v:type="0" v:sortKey="Equipment" v:invis="false" v:ask="false"
						v:langID="1033"/>
				<v:cp v:nameU="PartNumber" v:lbl="Part Number" v:type="0" v:sortKey="Equipment" v:invis="false" v:ask="false"
						v:langID="1033"/>
				<v:cp v:nameU="ProductDescription" v:lbl="Product Description" v:type="0" v:sortKey="Equipment" v:invis="false"
						v:ask="false" v:langID="1033"/>
				<v:cp v:nameU="AssetNumber" v:lbl="Asset Number" v:type="0" v:sortKey="Asset" v:invis="false" v:ask="false"
						v:langID="1033"/>
				<v:cp v:nameU="SerialNumber" v:lbl="Serial Number" v:type="0" v:sortKey="Asset" v:invis="false" v:ask="false"
						v:langID="1033"/>
				<v:cp v:nameU="Location" v:lbl="Location" v:type="0" v:sortKey="Asset" v:invis="false" v:ask="false"
						v:langID="1033"/>
				<v:cp v:nameU="Building" v:lbl="Building" v:type="0" v:sortKey="Asset" v:invis="false" v:ask="false"
						v:langID="1033"/>
				<v:cp v:nameU="Room" v:lbl="Room" v:type="0" v:sortKey="Asset" v:invis="false" v:ask="false" v:langID="1033"/>
				<v:cp v:nameU="Department" v:lbl="Department" v:type="0" v:invis="false" v:ask="false" v:langID="1033"/>
				<v:cp v:nameU="NetworkName" v:lbl="Network Name" v:type="0" v:sortKey="Network" v:invis="false" v:ask="false"
						v:langID="1033"/>
				<v:cp v:nameU="IPAddress" v:lbl="IP Address" v:type="0" v:sortKey="Network" v:invis="false" v:ask="false"
						v:langID="1033"/>
				<v:cp v:nameU="SubnetMask" v:lbl="Subnet Mask" v:type="0" v:sortKey="Network" v:invis="false" v:ask="false"
						v:langID="1033"/>
				<v:cp v:nameU="AdminInterface" v:lbl="Administrative Interface" v:type="0" v:sortKey="Network" v:invis="false"
						v:ask="false" v:langID="1033"/>
				<v:cp v:nameU="NumberofPorts" v:lbl="Number of Ports" v:type="0" v:sortKey="Network" v:invis="false" v:ask="false"
						v:langID="1033"/>
				<v:cp v:nameU="CommunityString" v:lbl="Community String" v:type="0" v:sortKey="Network" v:invis="false"
						v:ask="false" v:langID="1033"/>
				<v:cp v:nameU="NetworkDescription" v:lbl="Network Description" v:type="0" v:sortKey="Network" v:invis="false"
						v:ask="false" v:langID="1033"/>
				<v:cp v:nameU="CPU" v:lbl="CPU" v:type="0" v:sortKey="Workstation" v:invis="false" v:ask="false" v:langID="1033"/>
				<v:cp v:nameU="Memory" v:lbl="Memory" v:type="0" v:sortKey="Workstation" v:invis="false" v:ask="false"
						v:langID="1033"/>
				<v:cp v:nameU="OperatingSystem" v:lbl="Operating System" v:type="0" v:sortKey="Workstation" v:invis="false"
						v:ask="false" v:langID="1033"/>
				<v:cp v:nameU="BelongsTo" v:lbl="Belongs To" v:type="0" v:invis="true" v:ask="false" v:langID="1033"/>
				<v:cp v:nameU="ShapeClass" v:lbl="ShapeClass" v:type="0" v:invis="true" v:ask="false" v:langID="1033"
						v:val="VT4(Equipment)"/>
				<v:cp v:nameU="ShapeType" v:lbl="ShapeType" v:type="0" v:invis="true" v:ask="false" v:langID="1033"
						v:val="VT4(Server)"/>
				<v:cp v:nameU="MACAddress" v:lbl="MAC Address" v:type="0" v:sortKey="Network" v:invis="false" v:ask="false"
						v:langID="1033"/>
				<v:cp v:nameU="HardDriveSize" v:lbl="Hard Drive Capacity" v:type="0" v:sortKey="Workstation" v:invis="false"
						v:ask="false" v:langID="1033"/>
			</v:custProps>
			<v:userDefs>
				<v:ud v:nameU="HasText" v:val="VT0(0):5"/>
				<v:ud v:nameU="ShapeClass" v:val="VT0(5):26"/>
				<v:ud v:nameU="ShapeType" v:val="VT0(24):26"/>
				<v:ud v:nameU="SolSH" v:val="VT15({BF0433D9-CD73-4EB5-8390-8653BE590246}):41"/>
				<v:ud v:nameU="visLegendShape" v:val="VT0(2):26"/>
				<v:ud v:nameU="visVersion" v:prompt="" v:val="VT0(15):26"/>
				<v:ud v:nameU="HasText" v:prompt="" v:val="VT0(1):5"/>
			</v:userDefs>
			<title>Server</title>
			<desc>Servidor Web</desc>
			<g id="shape9-33" v:mID="9" v:groupContext="shape">
				<title>Sheet.9</title>
				<path d="M51.02 534.92 L31.4 524.41 L0 541.52 L0.01 585.45 A33.0369 30.8521 -180 0 0 19.37 595.28 L51.02 578.17 L51.02
							 534.92 ZM8.71 548.36 A34.0948 31.84 -180 0 0 19.37 552.15 A33.7139 31.4843 0 0 1 8.71 548.36 Z"
						class="st6"/>
			</g>
			<g id="shape10-35" v:mID="10" v:groupContext="shape" transform="translate(0,-43.1295)">
				<title>Sheet.10</title>
				<path d="M19.36 595.27 L51.02 578.05 L31.4 567.54 L0 584.65 A34.0948 31.84 -180 0 0 19.37 595.28 L19.36 595.27 Z"
						class="st7"/>
				<path d="M19.36 595.27 L51.02 578.05 L31.4 567.54 L0 584.65 A34.0948 31.84 -180 0 0 19.37 595.28" class="st8"/>
			</g>
			<g id="shape11-40" v:mID="11" v:groupContext="shape" transform="translate(0.0115937,-4.54747E-13)">
				<title>Sheet.11</title>
				<path d="M19.36 552.15 A33.7139 31.4843 0 0 1 -0 541.47 L0 585.45 A33.0369 30.8521 -180 0 0 19.36 595.28 L19.35 552.15
							 L19.36 552.15 Z" class="st9"/>
				<path d="M19.36 552.15 A33.7139 31.4843 0 0 1 -0 541.47 L0 585.45 A33.0369 30.8521 -180 0 0 19.36 595.28 L19.35 552.15"
						class="st10"/>
			</g>
			<g id="shape12-47" v:mID="12" v:groupContext="shape" transform="translate(19.3628,-0.0487457)">
				<title>Sheet.12</title>
				<path d="M0 552.19 L0 595.28 L31.66 578.22 L31.66 534.97 L0 552.19 Z" class="st11"/>
			</g>
			<g id="shape13-53" v:mID="13" v:groupContext="shape" transform="translate(0,-0.00156214)">
				<title>Sheet.13</title>
				<path d="M51.02 534.92 L31.4 524.41 L0 541.52 L0.01 585.45 A33.0369 30.8521 -180 0 0 19.37 595.28 L51.02 578.17 L51.02
							 534.92" class="st12"/>
			</g>
			<g id="shape14-56" v:mID="14" v:groupContext="shape" transform="translate(-195.389,13.1183) rotate(-20)">
				<title>Sheet.14</title>
				<ellipse cx="1.4821" cy="593.257" rx="1.4821" ry="2.01816" class="st13"/>
			</g>
			<g id="shape15-62" v:mID="15" v:groupContext="shape" transform="translate(3.13992,-6.23262)">
				<title>Sheet.15</title>
				<path d="M-0 583.3 A37.8205 34.5426 -96.44 0 0 13.08 590.02" class="st14"/>
				<path d="M0 585.93 A37.8205 34.5426 -96.44 0 0 13.08 592.65" class="st14"/>
				<path d="M-0 588.56 A37.8205 34.5426 -96.44 0 0 13.08 595.28" class="st14"/>
			</g>
			<g id="group16-69" transform="translate(2.6166,-30.546)" v:mID="16" v:groupContext="group">
				<title>Sheet.16</title>
				<g id="shape17-70" v:mID="17" v:groupContext="shape" transform="translate(0,-7.06961)">
					<title>Sheet.17</title>
					<path d="M0.47 588.56 A32.9981 30.8159 -180 0 0 13.55 595.28 a0.670503 0.62616 -180 0 0 -3.55271E-15 -1.22178
								 A32.1003 29.9774 0 0 1 0.73 587.53 a0.434387 0.40566 -180 0 0 -0.725202 0.344859 a0.946727 0.884117
								 -180 0 0 0.463543 0.681433 Z" class="st15"/>
				</g>
				<g id="shape18-72" v:mID="18" v:groupContext="shape" transform="translate(4.16081,-8.60965)">
					<title>Sheet.18</title>
					<path d="M4.02 595.23 A4.90309 2.98481 -90.9 0 0 0.1 593.27 A3.22599 1.60837 -180 0 0 4.02 595.23 Z"
							class="st16"/>
				</g>
				<g id="shape19-77" v:mID="19" v:groupContext="shape" transform="translate(0.523319,-0.0610888)">
					<title>Sheet.19</title>
					<path d="M0 585.13 L0 588.56 A35.496 33.1485 -180 0 0 13.08 595.28 L13.08 591.85 A36.6577 34.2334 0 0 1 0 585.13
								 Z" class="st17"/>
				</g>
				<g id="shape20-85" v:mID="20" v:groupContext="shape" transform="translate(0.523319,-1.95484)">
					<title>Sheet.20</title>
					<path d="M0 588.56 A32.1279 30.0032 -180 0 0 13.08 595.28 L13.08 594.42 A35.5103 33.1619 0 0 1 -0 587.7 L0 588.56
								 Z" class="st18"/>
				</g>
				<g id="shape21-87" v:mID="21" v:groupContext="shape" transform="translate(0.523319,-0.122178)">
					<title>Sheet.21</title>
					<path d="M0 585.13 L0 588.56 A35.496 33.1485 -180 0 0 13.08 595.28" class="st8"/>
				</g>
				<g id="shape22-90" v:mID="22" v:groupContext="shape" transform="translate(0.523319,1.13687E-13)">
					<title>Sheet.22</title>
					<path d="M13.08 595.28 L13.08 591.85 A36.6577 34.2334 0 0 1 0 585.13" class="st19"/>
				</g>
			</g>
			<g id="shape8-94" v:mID="8" v:groupContext="groupContent">
				<v:textBlock v:margins="rect(4,4,4,4)" v:tabSpace="42.5197"/>
				<v:textRect cx="25.5118" cy="606.477" width="77.04" height="22.4037"/>
				<text x="-7.65" y="610.08" class="st20" v:langID="2070"><v:paragraph v:horizAlign="1"/><v:tabList/>Servidor Web</text>			</g>
		</g>
		<g id="group23-96" transform="translate(150.684,-439.37)" v:mID="23" v:groupContext="group">
			<v:custProps>
				<v:cp v:nameU="ShapeClass" v:lbl="ShapeClass" v:type="0" v:invis="true" v:ask="false" v:langID="1033"
						v:val="VT4(Connectivity)"/>
				<v:cp v:nameU="ShapeType" v:lbl="ShapeType" v:type="0" v:invis="true" v:ask="false" v:langID="1033"
						v:val="VT4(Conceptual)"/>
				<v:cp v:nameU="SubShapeType" v:lbl="SubShapeType" v:type="0" v:invis="true" v:ask="false" v:langID="1033"
						v:val="VT4(Data)"/>
			</v:custProps>
			<v:userDefs>
				<v:ud v:nameU="visLegendShape" v:val="VT0(2):26"/>
				<v:ud v:nameU="HasText" v:val="VT0(0):5"/>
				<v:ud v:nameU="SolSH" v:val="VT15({BF0433D9-CD73-4EB5-8390-8653BE590246}):41"/>
				<v:ud v:nameU="ShapeClass" v:val="VT0(4):26"/>
				<v:ud v:nameU="ShapeType" v:val="VT0(7):26"/>
				<v:ud v:nameU="SubShapeType" v:val="VT0(15):26"/>
				<v:ud v:nameU="visVersion" v:prompt="" v:val="VT0(15):26"/>
				<v:ud v:nameU="HasText" v:prompt="" v:val="VT0(1):5"/>
			</v:userDefs>
			<title>Data</title>
			<desc>Base de Dados “Trails4Health.mdf”</desc>
			<g id="shape24-97" v:mID="24" v:groupContext="shape" transform="translate(0,0.000575512)">
				<title>Sheet.24</title>
				<path d="M70.74 544.96 A35.3699 20.5513 0.18 0 1 69.89 549.51 A35.3699 20.5513 -179.82 0 0 70.74 544.96 L70.74 544.96
							 ZM70.74 544.96 A35.3699 20.5513 -179.82 0 0 0 544.96 L0 574.72 A35.37 20.5514 -179.82 0 0 70.74 574.72
							 L70.87 574.72 L70.87 544.96 L70.74 544.96 L70.74 544.96 Z" class="st21"/>
				<path d="M70.74 544.96 A35.3699 20.5513 0.18 0 1 69.89 549.51 A35.3699 20.5513 -179.82 0 0 70.74 544.96M70.74 544.96
							 A35.3699 20.5513 -179.82 0 0 0 544.96 L0 574.72 A35.37 20.5514 -179.82 0 0 70.74 574.72 L70.87 574.72
							 L70.87 544.96 L70.74 544.96" class="st22"/>
			</g>
			<g id="shape25-100" v:mID="25" v:groupContext="shape" transform="translate(-3.51719E-13,-29.7632)">
				<title>Sheet.25</title>
				<path d="M0 574.62 A35.3699 20.5513 -179.82 1 1 70.74 574.83 A35.3699 20.5513 -179.82 1 1 0 574.62 Z" class="st23"/>
			</g>
			<g id="shape26-104" v:mID="26" v:groupContext="shape">
				<title>Sheet.26</title>
				<path d="M0 544.96 L0 574.62 L0 574.72 A35.37 20.5514 -179.82 0 0 70.74 574.72 L70.87 574.72 L70.87 544.96 L70.74
							 544.96 A35.3699 20.5513 0.18 0 1 0 544.96 L0 544.96 Z" class="st24"/>
				<path d="M0 544.96 L0 574.62 L0 574.72 A35.37 20.5514 -179.82 0 0 70.74 574.72 L70.87 574.72 L70.87 544.96 L70.74
							 544.96 A35.3699 20.5513 0.18 0 1 0 544.96" class="st25"/>
			</g>
			<g id="shape27-111" v:mID="27" v:groupContext="shape" transform="translate(0,0.000575512)">
				<title>Sheet.27</title>
				<path d="M70.74 544.96 A35.3699 20.5513 -179.82 1 0 0 544.96 L0 574.72 A35.37 20.5514 -179.82 0 0 70.74 574.72 L70.87
							 574.72 L70.87 544.96 L70.74 544.96" class="st12"/>
			</g>
			<g id="shape23-114" v:mID="23" v:groupContext="groupContent">
				<v:textBlock v:margins="rect(4,4,4,4)" v:tabSpace="42.5197"/>
				<v:textRect cx="35.4331" cy="613.678" width="107.68" height="36.8038"/>
				<text x="-0.12" y="610.08" class="st20" v:langID="2070"><v:paragraph v:horizAlign="1"/><v:tabList/>Base de Dados<v:newlineChar/><tspan
							x="-13.05" dy="1.2em" class="st26">“</tspan>Trails4Health.mdf”</text>			</g>
		</g>
		<g id="group28-117" transform="translate(150.684,-99.2126)" v:mID="28" v:groupContext="group">
			<v:custProps>
				<v:cp v:nameU="Manufacturer" v:lbl="Manufacturer" v:type="0" v:sortKey="Equipment" v:invis="false" v:ask="false"
						v:langID="1033"/>
				<v:cp v:nameU="ProductNumber" v:lbl="Product Number" v:type="0" v:sortKey="Equipment" v:invis="false" v:ask="false"
						v:langID="1033"/>
				<v:cp v:nameU="PartNumber" v:lbl="Part Number" v:type="0" v:sortKey="Equipment" v:invis="false" v:ask="false"
						v:langID="1033"/>
				<v:cp v:nameU="ProductDescription" v:lbl="Product Description" v:type="0" v:sortKey="Equipment" v:invis="false"
						v:ask="false" v:langID="1033"/>
				<v:cp v:nameU="AssetNumber" v:lbl="Asset Number" v:type="0" v:sortKey="Asset" v:invis="false" v:ask="false"
						v:langID="1033"/>
				<v:cp v:nameU="SerialNumber" v:lbl="Serial Number" v:type="0" v:sortKey="Asset" v:invis="false" v:ask="false"
						v:langID="1033"/>
				<v:cp v:nameU="Location" v:lbl="Location" v:type="0" v:sortKey="Asset" v:invis="false" v:ask="false"
						v:langID="1033"/>
				<v:cp v:nameU="Building" v:lbl="Building" v:type="0" v:sortKey="Asset" v:invis="false" v:ask="false"
						v:langID="1033"/>
				<v:cp v:nameU="Room" v:lbl="Room" v:type="0" v:sortKey="Asset" v:invis="false" v:ask="false" v:langID="1033"/>
				<v:cp v:nameU="Department" v:lbl="Department" v:type="0" v:invis="false" v:ask="false" v:langID="1033"/>
				<v:cp v:nameU="NetworkName" v:lbl="Network Name" v:type="0" v:sortKey="Network" v:invis="false" v:ask="false"
						v:langID="1033"/>
				<v:cp v:nameU="IPAddress" v:lbl="IP Address" v:type="0" v:sortKey="Network" v:invis="false" v:ask="false"
						v:langID="1033"/>
				<v:cp v:nameU="SubnetMask" v:lbl="Subnet Mask" v:type="0" v:sortKey="Network" v:invis="false" v:ask="false"
						v:langID="1033"/>
				<v:cp v:nameU="AdminInterface" v:lbl="Administrative Interface" v:type="0" v:sortKey="Network" v:invis="false"
						v:ask="false" v:langID="1033"/>
				<v:cp v:nameU="NumberofPorts" v:lbl="Number of Ports" v:type="0" v:sortKey="Network" v:invis="false" v:ask="false"
						v:langID="1033"/>
				<v:cp v:nameU="CommunityString" v:lbl="Community String" v:type="0" v:sortKey="Network" v:invis="false"
						v:ask="false" v:langID="1033"/>
				<v:cp v:nameU="NetworkDescription" v:lbl="Network Description" v:type="0" v:sortKey="Network" v:invis="false"
						v:ask="false" v:langID="1033"/>
				<v:cp v:nameU="CPU" v:lbl="CPU" v:type="0" v:sortKey="Workstation" v:invis="false" v:ask="false" v:langID="1033"/>
				<v:cp v:nameU="Memory" v:lbl="Memory" v:type="0" v:sortKey="Workstation" v:invis="false" v:ask="false"
						v:langID="1033"/>
				<v:cp v:nameU="OperatingSystem" v:lbl="Operating System" v:type="0" v:sortKey="Workstation" v:invis="false"
						v:ask="false" v:langID="1033"/>
				<v:cp v:nameU="BelongsTo" v:lbl="Belongs To" v:type="0" v:invis="true" v:ask="false" v:langID="1033"/>
				<v:cp v:nameU="ShapeClass" v:lbl="ShapeClass" v:type="0" v:invis="true" v:ask="false" v:langID="1033"
						v:val="VT4(Equipment)"/>
				<v:cp v:nameU="ShapeType" v:lbl="ShapeType" v:type="0" v:invis="true" v:ask="false" v:langID="1033"
						v:val="VT4(Computer)"/>
				<v:cp v:nameU="SubShapeType" v:lbl="SubShapeType" v:type="0" v:invis="true" v:ask="false" v:langID="1033"
						v:val="VT4(Desktop)"/>
				<v:cp v:nameU="MACAddress" v:lbl="MAC Address" v:type="0" v:sortKey="Network" v:invis="false" v:ask="false"
						v:langID="1033"/>
				<v:cp v:nameU="HardDriveSize" v:lbl="Hard Drive Capacity" v:type="0" v:sortKey="Workstation" v:invis="false"
						v:ask="false" v:langID="1033"/>
			</v:custProps>
			<v:userDefs>
				<v:ud v:nameU="HasText" v:val="VT0(0):5"/>
				<v:ud v:nameU="ShapeClass" v:val="VT0(5):26"/>
				<v:ud v:nameU="ShapeType" v:val="VT0(6):26"/>
				<v:ud v:nameU="SubShapeType" v:val="VT0(17):26"/>
				<v:ud v:nameU="SolSH" v:val="VT15({BF0433D9-CD73-4EB5-8390-8653BE590246}):41"/>
				<v:ud v:nameU="visLegendShape" v:val="VT0(2):26"/>
				<v:ud v:nameU="visVersion" v:prompt="" v:val="VT0(15):26"/>
				<v:ud v:nameU="HasText" v:prompt="" v:val="VT0(1):5"/>
			</v:userDefs>
			<title>PC</title>
			<desc>Computador Gestor de Trilhos</desc>
			<g id="shape29-118" v:mID="29" v:groupContext="shape">
				<title>Sheet.29</title>
				<path d="M62.61 550.72 L62.61 535.49 L45.18 525.33 L37.15 527.64 L31.65 524.41 L25.23 526.95 L25.23 551.04 L19.15
							 554.65 L19.15 565.73 A61.6634 62.0652 -180 0 0 45.87 581.19 L70.87 566.65 L70.87 555.57 L62.61 550.72
							 ZM0 576.35 L0 579.58 L27.06 595.28 L39.68 587.89 L39.68 583.73 L12.16 567.81 L0 576.35 Z" class="st6"/>
			</g>
			<g id="shape30-120" v:mID="30" v:groupContext="shape" transform="translate(27.0622,-1.13687E-13)">
				<title>Sheet.30</title>
				<path d="M0 595.28 L0 592.07 L12.61 583.73 L12.61 587.89 L0 595.28 Z" class="st27"/>
			</g>
			<g id="shape31-126" v:mID="31" v:groupContext="shape" transform="translate(3.43725E-13,-3.20229)">
				<title>Sheet.31</title>
				<path d="M0 579.55 L12.16 571.01 L39.68 586.94 L27.06 595.28 L0 579.55 Z" class="st23"/>
			</g>
			<g id="shape32-129" v:mID="32" v:groupContext="shape" transform="translate(19.1499,-25.1768)">
				<title>Sheet.32</title>
				<path d="M26.72 595.28 L51.72 580.75 L24.88 565.05 L0 579.83 A63.0565 63.4673 -180 0 0 26.72 595.28 Z" class="st23"/>
			</g>
			<g id="shape33-132" v:mID="33" v:groupContext="shape" transform="translate(47.7028,-29.5468)">
				<title>Sheet.33</title>
				<path d="M0 595.28 L0 569.42 L5.25 566.35 L5.05 590.89 L0 595.28 Z" class="st27"/>
			</g>
			<g id="shape34-135" v:mID="34" v:groupContext="shape" transform="translate(52.7483,-36.4718)">
				<title>Sheet.34</title>
				<path d="M0.19 575.69 L9.86 571.96 L9.86 587.2 L0 595.28 L0.19 575.69 Z" class="st27"/>
			</g>
			<g id="shape35-138" v:mID="35" v:groupContext="shape" transform="translate(37.1531,-56.0564)">
				<title>Sheet.35</title>
				<path d="M15.78 595.28 L15.8 592.86 L0 583.7 L8.03 581.39 L25.46 591.55 L15.78 595.28 Z" class="st23"/>
			</g>
			<g id="shape36-141" v:mID="36" v:groupContext="shape" transform="translate(45.8681,-14.0809)">
				<title>Sheet.36</title>
				<path d="M0 584.18 L25 569.65 L25 580.73 L0 595.28 L0 584.18 Z" class="st27"/>
			</g>
			<g id="shape37-144" v:mID="37" v:groupContext="shape" transform="translate(25.2274,-55.4002)">
				<title>Sheet.37</title>
				<path d="M0 582.35 L6.42 579.81 L11.94 583.05 L27.73 592.21 L22.48 595.28 A62.9339 63.3439 0 0 1 0 582.35 Z"
						class="st23"/>
			</g>
			<g id="shape38-147" v:mID="38" v:groupContext="shape">
				<title>Sheet.38</title>
				<path d="M0 576.35 L27.06 592.07 L27.06 595.28 L0 579.58 L0 576.35 Z" class="st28"/>
			</g>
			<g id="group39-150" transform="translate(2.94717,-4.84819)" v:mID="39" v:groupContext="group">
				<title>Sheet.39</title>
				<g id="shape40-151" v:mID="40" v:groupContext="shape" transform="translate(0,-0.472502)">
					<title>Sheet.40</title>
					<path d="M0 580.77 L1.98 581.95 L3.64 580.87 L1.65 579.69 L0 580.77 ZM2.46 579.12 L4.44 580.3 L6.09 579.21 L4.11
								 578.03 L2.46 579.12 ZM4.91 577.46 L6.9 578.65 L8.55 577.56 L6.57 576.38 L4.91 577.46 ZM7.37 575.81
								 L9.35 576.99 L11.01 575.91 L9.02 574.72 L7.37 575.81 ZM11.06 578.03 L13.04 579.21 L14.69 578.13
								 L12.71 576.94 L11.06 578.03 ZM14.74 580.25 L16.72 581.43 L18.38 580.35 L16.39 579.16 L14.74 580.25
								 ZM18.43 582.47 L20.41 583.65 L22.06 582.57 L20.08 581.39 L18.43 582.47 ZM25.8 586.91 L27.78 588.09
								 L29.43 587.01 L27.45 585.83 L25.8 586.91 ZM29.48 589.13 L31.46 590.31 L33.12 589.23 L31.13 588.05
								 L29.48 589.13 ZM27.02 590.79 L29.01 591.97 L30.66 590.88 L28.68 589.7 L27.02 590.79 ZM23.34 588.57
								 L25.32 589.75 L26.98 588.66 L24.99 587.48 L23.34 588.57 ZM22.11 584.69 L24.09 585.87 L25.75 584.79
								 L23.76 583.61 L22.11 584.69 ZM19.65 586.35 L21.64 587.53 L23.29 586.44 L21.31 585.26 L19.65 586.35
								 ZM15.97 584.13 L17.95 585.31 L19.61 584.22 L17.62 583.04 L15.97 584.13 ZM12.28 581.91 L14.27 583.09
								 L15.92 582 L13.94 580.82 L12.28 581.91 ZM8.6 579.69 L10.58 580.87 L12.24 579.78 L10.25 578.6 L8.6
								 579.69 ZM6.14 581.34 L8.13 582.52 L9.78 581.43 L7.8 580.25 L6.14 581.34 ZM9.83 583.56 L11.81 584.74
								 L13.46 583.65 L11.48 582.47 L9.83 583.56 ZM13.51 585.78 L15.5 586.96 L17.15 585.87 L15.17 584.69
								 L13.51 585.78 ZM17.2 588 L19.18 589.18 L20.83 588.09 L18.85 586.91 L17.2 588 ZM20.88 590.22 L22.87
								 591.4 L24.52 590.31 L22.54 589.13 L20.88 590.22 ZM24.57 592.44 L26.55 593.62 L28.2 592.54 L26.22
								 591.35 L24.57 592.44 ZM22.11 594.09 L24.09 595.28 L25.75 594.19 L23.76 593.01 L22.11 594.09 ZM18.43
								 591.87 L20.41 593.06 L22.06 591.97 L20.08 590.79 L18.43 591.87 ZM7.37 585.21 L16.72 590.83 L18.38
								 589.75 L9.02 584.13 L7.37 585.21 ZM3.69 582.99 L5.67 584.17 L7.32 583.09 L5.34 581.91 L3.69 582.99
								 Z" class="st29"/>
				</g>
				<g id="shape41-153" v:mID="41" v:groupContext="shape" transform="translate(0.000779402,1.13687E-13)">
					<title>Sheet.41</title>
					<path d="M7.37 575.81 L9.36 576.99 L9.36 576.52 L7.37 575.34 L7.37 575.81 ZM11.06 578.03 L13.04 579.21 L13.04
								 578.74 L11.06 577.56 L11.06 578.03 ZM14.74 580.25 L16.72 581.43 L16.72 580.96 L14.74 579.78 L14.74
								 580.25 ZM18.43 582.47 L20.41 583.65 L20.41 583.18 L18.43 582 L18.43 582.47 ZM22.11 584.69 L24.09
								 585.87 L24.09 585.4 L22.11 584.22 L22.11 584.69 ZM25.8 586.91 L27.78 588.09 L27.78 587.62 L25.79
								 586.44 L25.8 586.91 ZM9.35 576.52 L9.35 576.99 L11.01 575.9 L11.01 575.43 L9.35 576.52 ZM13.04 578.74
								 L13.04 579.21 L14.69 578.12 L14.69 577.65 L13.04 578.74 ZM16.72 580.96 L16.72 581.43 L18.38 580.34
								 L18.38 579.87 L16.72 580.96 ZM20.41 583.18 L20.41 583.65 L22.06 582.57 L22.06 582.09 L20.41 583.18
								 ZM24.09 585.4 L24.09 585.87 L25.75 584.79 L25.75 584.31 L24.09 585.4 ZM27.78 587.62 L27.78 588.09
								 L29.43 587.01 L29.43 586.53 L27.78 587.62 ZM29.48 589.13 L31.46 590.31 L31.46 589.84 L29.48 588.66
								 L29.48 589.13 ZM31.46 589.84 L31.46 590.31 L33.12 589.23 L33.12 588.76 L31.46 589.84 ZM4.91 577.46
								 L6.9 578.65 L6.9 578.17 L4.91 576.99 L4.91 577.46 ZM8.6 579.68 L10.58 580.87 L10.58 580.39 L8.6
								 579.21 L8.6 579.68 ZM12.28 581.9 L14.27 583.09 L14.27 582.61 L12.28 581.43 L12.28 581.9 ZM15.97
								 584.13 L17.95 585.31 L17.95 584.83 L15.97 583.65 L15.97 584.13 ZM19.65 586.35 L21.64 587.53 L21.64
								 587.05 L19.65 585.87 L19.65 586.35 ZM23.34 588.57 L25.32 589.75 L25.32 589.28 L23.34 588.09 L23.34
								 588.57 ZM6.9 578.17 L6.9 578.64 L8.55 577.56 L8.55 577.09 L6.9 578.17 ZM10.58 580.39 L10.58 580.86
								 L12.24 579.78 L12.24 579.31 L10.58 580.39 ZM14.27 582.61 L14.27 583.09 L15.92 582 L15.92 581.53
								 L14.27 582.61 ZM17.95 584.83 L17.95 585.31 L19.61 584.22 L19.61 583.75 L17.95 584.83 ZM21.64 587.05
								 L21.64 587.53 L23.29 586.44 L23.29 585.97 L21.64 587.05 ZM25.32 589.27 L25.32 589.75 L26.98 588.66
								 L26.98 588.19 L25.32 589.27 ZM27.02 590.79 L29.01 591.97 L29.01 591.5 L27.02 590.31 L27.02 590.79
								 ZM29.01 591.5 L29.01 591.97 L30.66 590.88 L30.66 590.41 L29.01 591.5 ZM2.46 579.12 L4.44 580.3 L4.44
								 579.83 L2.46 578.64 L2.46 579.12 ZM6.14 581.34 L8.13 582.52 L8.13 582.05 L6.14 580.87 L6.14 581.34
								 ZM9.83 583.56 L11.81 584.74 L11.81 584.27 L9.83 583.09 L9.83 583.56 ZM13.51 585.78 L15.5 586.96
								 L15.5 586.49 L13.51 585.31 L13.51 585.78 ZM17.2 588 L19.18 589.18 L19.18 588.71 L17.2 587.53 L17.2
								 588 ZM20.88 590.22 L22.87 591.4 L22.87 590.93 L20.88 589.75 L20.88 590.22 ZM4.44 579.83 L4.44 580.3
								 L6.09 579.21 L6.09 578.74 L4.44 579.83 ZM8.13 582.05 L8.13 582.52 L9.78 581.43 L9.78 580.96 L8.13
								 582.05 ZM11.81 584.27 L11.81 584.74 L13.46 583.65 L13.46 583.18 L11.81 584.27 ZM15.5 586.49 L15.5
								 586.96 L17.15 585.87 L17.15 585.4 L15.5 586.49 ZM19.18 588.71 L19.18 589.18 L20.83 588.09 L20.83
								 587.62 L19.18 588.71 ZM22.87 590.93 L22.87 591.4 L24.52 590.31 L24.52 589.84 L22.87 590.93 ZM24.57
								 592.44 L26.55 593.62 L26.55 593.15 L24.57 591.97 L24.57 592.44 ZM26.55 593.15 L26.55 593.62 L28.2
								 592.54 L28.2 592.06 L26.55 593.15 ZM0 580.77 L1.98 581.95 L1.98 581.48 L0 580.3 L0 580.77 ZM3.69
								 582.99 L5.67 584.17 L5.67 583.7 L3.68 582.52 L3.69 582.99 ZM7.37 585.21 L16.72 590.83 L16.72 590.36
								 L7.37 584.74 L7.37 585.21 ZM18.42 591.87 L20.41 593.06 L20.41 592.58 L18.42 591.4 L18.42 591.87
								 ZM1.98 581.48 L1.98 581.95 L3.64 580.87 L3.64 580.39 L1.98 581.48 ZM5.67 583.7 L5.67 584.17 L7.32
								 583.09 L7.32 582.61 L5.67 583.7 ZM16.72 590.36 L16.72 590.83 L18.38 589.75 L18.38 589.28 L16.72
								 590.36 ZM20.41 592.58 L20.41 593.05 L22.06 591.97 L22.06 591.5 L20.41 592.58 ZM22.11 594.09 L24.09
								 595.28 L24.09 594.8 L22.11 593.62 L22.11 594.09 ZM24.09 594.8 L24.09 595.28 L25.75 594.19 L25.75
								 593.72 L24.09 594.8 Z" class="st30"/>
				</g>
			</g>
			<g id="shape42-155" v:mID="42" v:groupContext="shape" transform="translate(65.0282,-28.4965)">
				<title>Sheet.42</title>
				<path d="M1.71 588.45 L3.14 587.55 L3.14 593.45 L1.71 594.35 L1.71 588.45 ZM0 589.38 L0.79 588.92 L0.79 594.81 L0
							 595.28 L0 589.38 Z" class="st31"/>
			</g>
			<g id="shape43-157" v:mID="43" v:groupContext="shape" transform="translate(19.1499,-14.0809)">
				<title>Sheet.43</title>
				<path d="M28.55 579.81 A51.0927 51.4255 0 0 1 6.08 567.11 L6.08 541.03 A61.9225 62.3259 -180 0 0 28.55 553.96 L28.55
							 579.81 ZM-0 579.81 A61.6634 62.0652 -180 0 0 26.72 595.28 L26.72 584.18 A62.0514 62.4556 0 0 1 -0 568.73
							 L0 579.81 Z" class="st24"/>
				<path d="M28.55 579.81 A51.0927 51.4255 0 0 1 6.08 567.11 L6.08 541.03 A61.9225 62.3259 -180 0 0 28.55 553.96 L28.55
							 579.81" class="st25"/>
				<path d="M1.95 573.35 A36.6775 36.4401 -90 0 0 7.91 578.19" class="st25"/>
				<path d="M1.95 574.96 A36.6775 36.4401 -90 0 0 7.91 579.81" class="st25"/>
				<path d="M1.95 576.58 A36.6775 36.4401 -90 0 0 7.91 581.43" class="st25"/>
				<path d="M1.95 578.19 A36.6775 36.4401 -90 0 0 7.91 583.04" class="st25"/>
				<path d="M23.51 543.67 L34.06 549.8" class="st25"/>
				<path d="M24.88 543.29 L35.43 549.42" class="st25"/>
				<path d="M26.26 542.9 L36.81 549.03" class="st25"/>
				<path d="M27.64 542.52 L38.19 548.65" class="st25"/>
				<path d="M-0 579.81 A61.6634 62.0652 -180 0 0 26.72 595.28 L26.72 584.18 A62.0514 62.4556 0 0 1 -0 568.73 L0 579.81"
						class="st25"/>
			</g>
			<g id="shape44-170" v:mID="44" v:groupContext="shape" transform="translate(27.9795,-34.2045)">
				<title>Sheet.44</title>
				<path d="M0 566.92 L0 585.62 A52.8389 52.4969 -90.11 0 0 16.28 595.28" class="st32"/>
			</g>
			<g id="shape45-174" v:mID="45" v:groupContext="shape">
				<title>Sheet.45</title>
				<path d="M45.87 581.19 L70.87 566.65 L70.87 555.57 L62.61 550.72 L62.61 535.49 L45.18 525.33 L37.15 527.64 L31.65
							 524.41 L25.23 526.95 L25.23 551.19 L19.15 554.65 L19.15 565.73 A63.1339 62.7253 -90 0 0 45.87 581.19
							 ZM0 576.35 L12.16 567.81 L39.68 583.73 L39.68 587.89 L27.06 595.28 L0 579.58 L0 576.35 Z" class="st33"/>
			</g>
			<g id="group46-176" transform="translate(33.2543,-18.0051)" v:mID="46" v:groupContext="group">
				<title>Sheet.46</title>
				<g id="shape47-177" v:mID="47" v:groupContext="shape" transform="translate(2.2227,0)">
					<title>Sheet.47</title>
					<path d="M0.76 590.43 L8.56 593.54 a0.90402 0.909909 0 0 1 -0.22934 1.73126 L0.76 592.27 a0.933946 0.940031 0
								 0 1 -1.27676E-14 -1.84667 Z" class="st34"/>
				</g>
				<g id="shape48-179" v:mID="48" v:groupContext="shape" transform="translate(5.59552E-14,-3.23168)">
					<title>Sheet.48</title>
					<path d="M0 588.35 L11.24 592.97 L11.24 595.28 L0 590.89 L0 588.35 Z" class="st35"/>
				</g>
				<g id="shape49-181" v:mID="49" v:groupContext="shape" transform="translate(5.59552E-14,-3.23168)">
					<title>Sheet.49</title>
					<path d="M0 588.35 L11.24 592.97 L11.24 595.28" class="st19"/>
				</g>
				<g id="shape50-184" v:mID="50" v:groupContext="shape" transform="translate(5.59552E-14,-4.61669)">
					<title>Sheet.50</title>
					<path d="M0 590.66 L11.24 595.28" class="st19"/>
				</g>
				<g id="shape51-187" v:mID="51" v:groupContext="shape" transform="translate(-5.79536E-14,-3.23168)">
					<title>Sheet.51</title>
					<path d="M0 588.35 L0 590.89 L11.24 595.28" class="st8"/>
				</g>
			</g>
			<g id="shape52-190" v:mID="52" v:groupContext="shape" transform="translate(-255.771,47.9892) rotate(-30)">
				<title>Sheet.52</title>
				<ellipse cx="0.769099" cy="594.247" rx="0.769099" ry="1.0288" class="st36"/>
			</g>
			<g id="shape53-194" v:mID="53" v:groupContext="shape" transform="translate(27.9795,-34.2045)">
				<title>Sheet.53</title>
				<path d="M0.69 585.19 L0.69 567.61 L0 566.92 A39.8543 39.5964 -90.48 0 0 16.28 576.62 L16.28 595.28 L16.28 594.44
							 A50.3455 50.0196 91.46 0 1 0.69 585.19 Z" class="st37"/>
			</g>
			<g id="shape28-202" v:mID="28" v:groupContext="groupContent">
				<v:textBlock v:margins="rect(4,4,4,4)" v:tabSpace="42.5197"/>
				<v:textRect cx="35.4331" cy="613.678" width="94.05" height="36.8038"/>
				<text x="4.68" y="610.08" class="st20" v:langID="2070"><v:paragraph v:horizAlign="1"/><v:tabList/>Computador <v:newlineChar/><tspan
							x="-6.23" dy="1.2em" class="st26">Gestor de Trilhos</tspan></text>			</g>
		</g>
		<g id="group54-205" transform="translate(646.747,-262.205)" v:mID="54" v:groupContext="group">
			<v:custProps>
				<v:cp v:nameU="Manufacturer" v:lbl="Manufacturer" v:type="0" v:sortKey="Equipment" v:invis="false" v:ask="false"
						v:langID="1033"/>
				<v:cp v:nameU="ProductNumber" v:lbl="Product Number" v:type="0" v:sortKey="Equipment" v:invis="false" v:ask="false"
						v:langID="1033"/>
				<v:cp v:nameU="PartNumber" v:lbl="Part Number" v:type="0" v:sortKey="Equipment" v:invis="false" v:ask="false"
						v:langID="1033"/>
				<v:cp v:nameU="ProductDescription" v:lbl="Product Description" v:type="0" v:sortKey="Equipment" v:invis="false"
						v:ask="false" v:langID="1033"/>
				<v:cp v:nameU="AssetNumber" v:lbl="Asset Number" v:type="0" v:sortKey="Asset" v:invis="false" v:ask="false"
						v:langID="1033"/>
				<v:cp v:nameU="SerialNumber" v:lbl="Serial Number" v:type="0" v:sortKey="Asset" v:invis="false" v:ask="false"
						v:langID="1033"/>
				<v:cp v:nameU="Location" v:lbl="Location" v:type="0" v:sortKey="Asset" v:invis="false" v:ask="false"
						v:langID="1033"/>
				<v:cp v:nameU="Building" v:lbl="Building" v:type="0" v:sortKey="Asset" v:invis="false" v:ask="false"
						v:langID="1033"/>
				<v:cp v:nameU="Room" v:lbl="Room" v:type="0" v:sortKey="Asset" v:invis="false" v:ask="false" v:langID="1033"/>
				<v:cp v:nameU="Department" v:lbl="Department" v:type="0" v:invis="false" v:ask="false" v:langID="1033"/>
				<v:cp v:nameU="NetworkName" v:lbl="Network Name" v:type="0" v:sortKey="Network" v:invis="false" v:ask="false"
						v:langID="1033"/>
				<v:cp v:nameU="IPAddress" v:lbl="IP Address" v:type="0" v:sortKey="Network" v:invis="false" v:ask="false"
						v:langID="1033"/>
				<v:cp v:nameU="SubnetMask" v:lbl="Subnet Mask" v:type="0" v:sortKey="Network" v:invis="false" v:ask="false"
						v:langID="1033"/>
				<v:cp v:nameU="AdminInterface" v:lbl="Administrative Interface" v:type="0" v:sortKey="Network" v:invis="false"
						v:ask="false" v:langID="1033"/>
				<v:cp v:nameU="NumberofPorts" v:lbl="Number of Ports" v:type="0" v:sortKey="Network" v:invis="false" v:ask="false"
						v:langID="1033"/>
				<v:cp v:nameU="CommunityString" v:lbl="Community String" v:type="0" v:sortKey="Network" v:invis="false"
						v:ask="false" v:langID="1033"/>
				<v:cp v:nameU="NetworkDescription" v:lbl="Network Description" v:type="0" v:sortKey="Network" v:invis="false"
						v:ask="false" v:langID="1033"/>
				<v:cp v:nameU="CPU" v:lbl="CPU" v:type="0" v:sortKey="Workstation" v:invis="false" v:ask="false" v:langID="1033"/>
				<v:cp v:nameU="Memory" v:lbl="Memory" v:type="0" v:sortKey="Workstation" v:invis="false" v:ask="false"
						v:langID="1033"/>
				<v:cp v:nameU="OperatingSystem" v:lbl="Operating System" v:type="0" v:sortKey="Workstation" v:invis="false"
						v:ask="false" v:langID="1033"/>
				<v:cp v:nameU="BelongsTo" v:lbl="Belongs To" v:type="0" v:invis="true" v:ask="false" v:langID="1033"/>
				<v:cp v:nameU="ShapeClass" v:lbl="ShapeClass" v:type="0" v:invis="true" v:ask="false" v:langID="1033"
						v:val="VT4(Equipment)"/>
				<v:cp v:nameU="ShapeType" v:lbl="ShapeType" v:type="0" v:invis="true" v:ask="false" v:langID="1033"
						v:val="VT4(Computer)"/>
				<v:cp v:nameU="SubShapeType" v:lbl="SubShapeType" v:type="0" v:invis="true" v:ask="false" v:langID="1033"
						v:val="VT4(Desktop)"/>
				<v:cp v:nameU="MACAddress" v:lbl="MAC Address" v:type="0" v:sortKey="Network" v:invis="false" v:ask="false"
						v:langID="1033"/>
				<v:cp v:nameU="HardDriveSize" v:lbl="Hard Drive Capacity" v:type="0" v:sortKey="Workstation" v:invis="false"
						v:ask="false" v:langID="1033"/>
			</v:custProps>
			<v:userDefs>
				<v:ud v:nameU="HasText" v:val="VT0(0):5"/>
				<v:ud v:nameU="ShapeClass" v:val="VT0(5):26"/>
				<v:ud v:nameU="ShapeType" v:val="VT0(6):26"/>
				<v:ud v:nameU="SubShapeType" v:val="VT0(17):26"/>
				<v:ud v:nameU="SolSH" v:val="VT15({BF0433D9-CD73-4EB5-8390-8653BE590246}):41"/>
				<v:ud v:nameU="visLegendShape" v:val="VT0(2):26"/>
				<v:ud v:nameU="visVersion" v:prompt="" v:val="VT0(15):26"/>
			</v:userDefs>
			<title>PC.54</title>
			<g id="shape55-206" v:mID="55" v:groupContext="shape">
				<title>Sheet.55</title>
				<path d="M62.61 550.72 L62.61 535.49 L45.18 525.33 L37.15 527.64 L31.65 524.41 L25.23 526.95 L25.23 551.04 L19.15
							 554.65 L19.15 565.73 A61.6634 62.0652 -180 0 0 45.87 581.19 L70.87 566.65 L70.87 555.57 L62.61 550.72
							 ZM0 576.35 L0 579.58 L27.06 595.28 L39.68 587.89 L39.68 583.73 L12.16 567.81 L0 576.35 Z" class="st6"/>
			</g>
			<g id="shape56-208" v:mID="56" v:groupContext="shape" transform="translate(27.0622,-1.13687E-13)">
				<title>Sheet.56</title>
				<path d="M0 595.28 L0 592.07 L12.61 583.73 L12.61 587.89 L0 595.28 Z" class="st27"/>
			</g>
			<g id="shape57-211" v:mID="57" v:groupContext="shape" transform="translate(3.43725E-13,-3.20229)">
				<title>Sheet.57</title>
				<path d="M0 579.55 L12.16 571.01 L39.68 586.94 L27.06 595.28 L0 579.55 Z" class="st23"/>
			</g>
			<g id="shape58-214" v:mID="58" v:groupContext="shape" transform="translate(19.1499,-25.1768)">
				<title>Sheet.58</title>
				<path d="M26.72 595.28 L51.72 580.75 L24.88 565.05 L0 579.83 A63.0565 63.4673 -180 0 0 26.72 595.28 Z" class="st23"/>
			</g>
			<g id="shape59-217" v:mID="59" v:groupContext="shape" transform="translate(47.7028,-29.5468)">
				<title>Sheet.59</title>
				<path d="M0 595.28 L0 569.42 L5.25 566.35 L5.05 590.89 L0 595.28 Z" class="st27"/>
			</g>
			<g id="shape60-220" v:mID="60" v:groupContext="shape" transform="translate(52.7483,-36.4718)">
				<title>Sheet.60</title>
				<path d="M0.19 575.69 L9.86 571.96 L9.86 587.2 L0 595.28 L0.19 575.69 Z" class="st27"/>
			</g>
			<g id="shape61-223" v:mID="61" v:groupContext="shape" transform="translate(37.1531,-56.0564)">
				<title>Sheet.61</title>
				<path d="M15.78 595.28 L15.8 592.86 L0 583.7 L8.03 581.39 L25.46 591.55 L15.78 595.28 Z" class="st23"/>
			</g>
			<g id="shape62-226" v:mID="62" v:groupContext="shape" transform="translate(45.8681,-14.0809)">
				<title>Sheet.62</title>
				<path d="M0 584.18 L25 569.65 L25 580.73 L0 595.28 L0 584.18 Z" class="st27"/>
			</g>
			<g id="shape63-229" v:mID="63" v:groupContext="shape" transform="translate(25.2274,-55.4002)">
				<title>Sheet.63</title>
				<path d="M0 582.35 L6.42 579.81 L11.94 583.05 L27.73 592.21 L22.48 595.28 A62.9339 63.3439 0 0 1 0 582.35 Z"
						class="st23"/>
			</g>
			<g id="shape64-232" v:mID="64" v:groupContext="shape">
				<title>Sheet.64</title>
				<path d="M0 576.35 L27.06 592.07 L27.06 595.28 L0 579.58 L0 576.35 Z" class="st28"/>
			</g>
			<g id="group65-235" transform="translate(2.94717,-4.84819)" v:mID="65" v:groupContext="group">
				<title>Sheet.65</title>
				<g id="shape66-236" v:mID="66" v:groupContext="shape" transform="translate(0,-0.472502)">
					<title>Sheet.66</title>
					<path d="M0 580.77 L1.98 581.95 L3.64 580.87 L1.65 579.69 L0 580.77 ZM2.46 579.12 L4.44 580.3 L6.09 579.21 L4.11
								 578.03 L2.46 579.12 ZM4.91 577.46 L6.9 578.65 L8.55 577.56 L6.57 576.38 L4.91 577.46 ZM7.37 575.81
								 L9.35 576.99 L11.01 575.91 L9.02 574.72 L7.37 575.81 ZM11.06 578.03 L13.04 579.21 L14.69 578.13
								 L12.71 576.94 L11.06 578.03 ZM14.74 580.25 L16.72 581.43 L18.38 580.35 L16.39 579.16 L14.74 580.25
								 ZM18.43 582.47 L20.41 583.65 L22.06 582.57 L20.08 581.39 L18.43 582.47 ZM25.8 586.91 L27.78 588.09
								 L29.43 587.01 L27.45 585.83 L25.8 586.91 ZM29.48 589.13 L31.46 590.31 L33.12 589.23 L31.13 588.05
								 L29.48 589.13 ZM27.02 590.79 L29.01 591.97 L30.66 590.88 L28.68 589.7 L27.02 590.79 ZM23.34 588.57
								 L25.32 589.75 L26.98 588.66 L24.99 587.48 L23.34 588.57 ZM22.11 584.69 L24.09 585.87 L25.75 584.79
								 L23.76 583.61 L22.11 584.69 ZM19.65 586.35 L21.64 587.53 L23.29 586.44 L21.31 585.26 L19.65 586.35
								 ZM15.97 584.13 L17.95 585.31 L19.61 584.22 L17.62 583.04 L15.97 584.13 ZM12.28 581.91 L14.27 583.09
								 L15.92 582 L13.94 580.82 L12.28 581.91 ZM8.6 579.69 L10.58 580.87 L12.24 579.78 L10.25 578.6 L8.6
								 579.69 ZM6.14 581.34 L8.13 582.52 L9.78 581.43 L7.8 580.25 L6.14 581.34 ZM9.83 583.56 L11.81 584.74
								 L13.46 583.65 L11.48 582.47 L9.83 583.56 ZM13.51 585.78 L15.5 586.96 L17.15 585.87 L15.17 584.69
								 L13.51 585.78 ZM17.2 588 L19.18 589.18 L20.83 588.09 L18.85 586.91 L17.2 588 ZM20.88 590.22 L22.87
								 591.4 L24.52 590.31 L22.54 589.13 L20.88 590.22 ZM24.57 592.44 L26.55 593.62 L28.2 592.54 L26.22
								 591.35 L24.57 592.44 ZM22.11 594.09 L24.09 595.28 L25.75 594.19 L23.76 593.01 L22.11 594.09 ZM18.43
								 591.87 L20.41 593.06 L22.06 591.97 L20.08 590.79 L18.43 591.87 ZM7.37 585.21 L16.72 590.83 L18.38
								 589.75 L9.02 584.13 L7.37 585.21 ZM3.69 582.99 L5.67 584.17 L7.32 583.09 L5.34 581.91 L3.69 582.99
								 Z" class="st29"/>
				</g>
				<g id="shape67-238" v:mID="67" v:groupContext="shape" transform="translate(0.000779402,1.13687E-13)">
					<title>Sheet.67</title>
					<path d="M7.37 575.81 L9.36 576.99 L9.36 576.52 L7.37 575.34 L7.37 575.81 ZM11.06 578.03 L13.04 579.21 L13.04
								 578.74 L11.06 577.56 L11.06 578.03 ZM14.74 580.25 L16.72 581.43 L16.72 580.96 L14.74 579.78 L14.74
								 580.25 ZM18.43 582.47 L20.41 583.65 L20.41 583.18 L18.43 582 L18.43 582.47 ZM22.11 584.69 L24.09
								 585.87 L24.09 585.4 L22.11 584.22 L22.11 584.69 ZM25.8 586.91 L27.78 588.09 L27.78 587.62 L25.79
								 586.44 L25.8 586.91 ZM9.35 576.52 L9.35 576.99 L11.01 575.9 L11.01 575.43 L9.35 576.52 ZM13.04 578.74
								 L13.04 579.21 L14.69 578.12 L14.69 577.65 L13.04 578.74 ZM16.72 580.96 L16.72 581.43 L18.38 580.34
								 L18.38 579.87 L16.72 580.96 ZM20.41 583.18 L20.41 583.65 L22.06 582.57 L22.06 582.09 L20.41 583.18
								 ZM24.09 585.4 L24.09 585.87 L25.75 584.79 L25.75 584.31 L24.09 585.4 ZM27.78 587.62 L27.78 588.09
								 L29.43 587.01 L29.43 586.53 L27.78 587.62 ZM29.48 589.13 L31.46 590.31 L31.46 589.84 L29.48 588.66
								 L29.48 589.13 ZM31.46 589.84 L31.46 590.31 L33.12 589.23 L33.12 588.76 L31.46 589.84 ZM4.91 577.46
								 L6.9 578.65 L6.9 578.17 L4.91 576.99 L4.91 577.46 ZM8.6 579.68 L10.58 580.87 L10.58 580.39 L8.6
								 579.21 L8.6 579.68 ZM12.28 581.9 L14.27 583.09 L14.27 582.61 L12.28 581.43 L12.28 581.9 ZM15.97
								 584.13 L17.95 585.31 L17.95 584.83 L15.97 583.65 L15.97 584.13 ZM19.65 586.35 L21.64 587.53 L21.64
								 587.05 L19.65 585.87 L19.65 586.35 ZM23.34 588.57 L25.32 589.75 L25.32 589.28 L23.34 588.09 L23.34
								 588.57 ZM6.9 578.17 L6.9 578.64 L8.55 577.56 L8.55 577.09 L6.9 578.17 ZM10.58 580.39 L10.58 580.86
								 L12.24 579.78 L12.24 579.31 L10.58 580.39 ZM14.27 582.61 L14.27 583.09 L15.92 582 L15.92 581.53
								 L14.27 582.61 ZM17.95 584.83 L17.95 585.31 L19.61 584.22 L19.61 583.75 L17.95 584.83 ZM21.64 587.05
								 L21.64 587.53 L23.29 586.44 L23.29 585.97 L21.64 587.05 ZM25.32 589.27 L25.32 589.75 L26.98 588.66
								 L26.98 588.19 L25.32 589.27 ZM27.02 590.79 L29.01 591.97 L29.01 591.5 L27.02 590.31 L27.02 590.79
								 ZM29.01 591.5 L29.01 591.97 L30.66 590.88 L30.66 590.41 L29.01 591.5 ZM2.46 579.12 L4.44 580.3 L4.44
								 579.83 L2.46 578.64 L2.46 579.12 ZM6.14 581.34 L8.13 582.52 L8.13 582.05 L6.14 580.87 L6.14 581.34
								 ZM9.83 583.56 L11.81 584.74 L11.81 584.27 L9.83 583.09 L9.83 583.56 ZM13.51 585.78 L15.5 586.96
								 L15.5 586.49 L13.51 585.31 L13.51 585.78 ZM17.2 588 L19.18 589.18 L19.18 588.71 L17.2 587.53 L17.2
								 588 ZM20.88 590.22 L22.87 591.4 L22.87 590.93 L20.88 589.75 L20.88 590.22 ZM4.44 579.83 L4.44 580.3
								 L6.09 579.21 L6.09 578.74 L4.44 579.83 ZM8.13 582.05 L8.13 582.52 L9.78 581.43 L9.78 580.96 L8.13
								 582.05 ZM11.81 584.27 L11.81 584.74 L13.46 583.65 L13.46 583.18 L11.81 584.27 ZM15.5 586.49 L15.5
								 586.96 L17.15 585.87 L17.15 585.4 L15.5 586.49 ZM19.18 588.71 L19.18 589.18 L20.83 588.09 L20.83
								 587.62 L19.18 588.71 ZM22.87 590.93 L22.87 591.4 L24.52 590.31 L24.52 589.84 L22.87 590.93 ZM24.57
								 592.44 L26.55 593.62 L26.55 593.15 L24.57 591.97 L24.57 592.44 ZM26.55 593.15 L26.55 593.62 L28.2
								 592.54 L28.2 592.06 L26.55 593.15 ZM0 580.77 L1.98 581.95 L1.98 581.48 L0 580.3 L0 580.77 ZM3.69
								 582.99 L5.67 584.17 L5.67 583.7 L3.68 582.52 L3.69 582.99 ZM7.37 585.21 L16.72 590.83 L16.72 590.36
								 L7.37 584.74 L7.37 585.21 ZM18.42 591.87 L20.41 593.06 L20.41 592.58 L18.42 591.4 L18.42 591.87
								 ZM1.98 581.48 L1.98 581.95 L3.64 580.87 L3.64 580.39 L1.98 581.48 ZM5.67 583.7 L5.67 584.17 L7.32
								 583.09 L7.32 582.61 L5.67 583.7 ZM16.72 590.36 L16.72 590.83 L18.38 589.75 L18.38 589.28 L16.72
								 590.36 ZM20.41 592.58 L20.41 593.05 L22.06 591.97 L22.06 591.5 L20.41 592.58 ZM22.11 594.09 L24.09
								 595.28 L24.09 594.8 L22.11 593.62 L22.11 594.09 ZM24.09 594.8 L24.09 595.28 L25.75 594.19 L25.75
								 593.72 L24.09 594.8 Z" class="st30"/>
				</g>
			</g>
			<g id="shape68-240" v:mID="68" v:groupContext="shape" transform="translate(65.0282,-28.4965)">
				<title>Sheet.68</title>
				<path d="M1.71 588.45 L3.14 587.55 L3.14 593.45 L1.71 594.35 L1.71 588.45 ZM0 589.38 L0.79 588.92 L0.79 594.81 L0
							 595.28 L0 589.38 Z" class="st31"/>
			</g>
			<g id="shape69-242" v:mID="69" v:groupContext="shape" transform="translate(19.1499,-14.0809)">
				<title>Sheet.69</title>
				<path d="M28.55 579.81 A51.0927 51.4255 0 0 1 6.08 567.11 L6.08 541.03 A61.9225 62.3259 -180 0 0 28.55 553.96 L28.55
							 579.81 ZM-0 579.81 A61.6634 62.0652 -180 0 0 26.72 595.28 L26.72 584.18 A62.0514 62.4556 0 0 1 -0 568.73
							 L0 579.81 Z" class="st24"/>
				<path d="M28.55 579.81 A51.0927 51.4255 0 0 1 6.08 567.11 L6.08 541.03 A61.9225 62.3259 -180 0 0 28.55 553.96 L28.55
							 579.81" class="st25"/>
				<path d="M1.95 573.35 A36.6775 36.4401 -90 0 0 7.91 578.19" class="st25"/>
				<path d="M1.95 574.96 A36.6775 36.4401 -90 0 0 7.91 579.81" class="st25"/>
				<path d="M1.95 576.58 A36.6775 36.4401 -90 0 0 7.91 581.43" class="st25"/>
				<path d="M1.95 578.19 A36.6775 36.4401 -90 0 0 7.91 583.04" class="st25"/>
				<path d="M23.51 543.67 L34.06 549.8" class="st25"/>
				<path d="M24.88 543.29 L35.43 549.42" class="st25"/>
				<path d="M26.26 542.9 L36.81 549.03" class="st25"/>
				<path d="M27.64 542.52 L38.19 548.65" class="st25"/>
				<path d="M-0 579.81 A61.6634 62.0652 -180 0 0 26.72 595.28 L26.72 584.18 A62.0514 62.4556 0 0 1 -0 568.73 L0 579.81"
						class="st25"/>
			</g>
			<g id="shape70-255" v:mID="70" v:groupContext="shape" transform="translate(27.9795,-34.2045)">
				<title>Sheet.70</title>
				<path d="M0 566.92 L0 585.62 A52.8389 52.4969 -90.11 0 0 16.28 595.28" class="st32"/>
			</g>
			<g id="shape71-259" v:mID="71" v:groupContext="shape">
				<title>Sheet.71</title>
				<path d="M45.87 581.19 L70.87 566.65 L70.87 555.57 L62.61 550.72 L62.61 535.49 L45.18 525.33 L37.15 527.64 L31.65
							 524.41 L25.23 526.95 L25.23 551.19 L19.15 554.65 L19.15 565.73 A63.1339 62.7253 -90 0 0 45.87 581.19
							 ZM0 576.35 L12.16 567.81 L39.68 583.73 L39.68 587.89 L27.06 595.28 L0 579.58 L0 576.35 Z" class="st33"/>
			</g>
			<g id="group72-261" transform="translate(33.2543,-18.0051)" v:mID="72" v:groupContext="group">
				<title>Sheet.72</title>
				<g id="shape73-262" v:mID="73" v:groupContext="shape" transform="translate(2.2227,0)">
					<title>Sheet.73</title>
					<path d="M0.76 590.43 L8.56 593.54 a0.90402 0.909909 0 0 1 -0.22934 1.73126 L0.76 592.27 a0.933946 0.940031 0
								 0 1 -1.27676E-14 -1.84667 Z" class="st34"/>
				</g>
				<g id="shape74-264" v:mID="74" v:groupContext="shape" transform="translate(5.59552E-14,-3.23168)">
					<title>Sheet.74</title>
					<path d="M0 588.35 L11.24 592.97 L11.24 595.28 L0 590.89 L0 588.35 Z" class="st35"/>
				</g>
				<g id="shape75-266" v:mID="75" v:groupContext="shape" transform="translate(5.59552E-14,-3.23168)">
					<title>Sheet.75</title>
					<path d="M0 588.35 L11.24 592.97 L11.24 595.28" class="st19"/>
				</g>
				<g id="shape76-269" v:mID="76" v:groupContext="shape" transform="translate(5.59552E-14,-4.61669)">
					<title>Sheet.76</title>
					<path d="M0 590.66 L11.24 595.28" class="st19"/>
				</g>
				<g id="shape77-272" v:mID="77" v:groupContext="shape" transform="translate(-5.79536E-14,-3.23168)">
					<title>Sheet.77</title>
					<path d="M0 588.35 L0 590.89 L11.24 595.28" class="st8"/>
				</g>
			</g>
			<g id="shape78-275" v:mID="78" v:groupContext="shape" transform="translate(-255.771,47.9892) rotate(-30)">
				<title>Sheet.78</title>
				<ellipse cx="0.769099" cy="594.247" rx="0.769099" ry="1.0288" class="st36"/>
			</g>
			<g id="shape79-278" v:mID="79" v:groupContext="shape" transform="translate(27.9795,-34.2045)">
				<title>Sheet.79</title>
				<path d="M0.69 585.19 L0.69 567.61 L0 566.92 A39.8543 39.5964 -90.48 0 0 16.28 576.62 L16.28 595.28 L16.28 594.44
							 A50.3455 50.0196 91.46 0 1 0.69 585.19 Z" class="st37"/>
			</g>
		</g>
		<g id="group84-281" transform="translate(646.747,-99.2126)" v:mID="84" v:groupContext="group">
			<v:custProps>
				<v:cp v:nameU="ShapeClass" v:lbl="ShapeClass" v:type="0" v:invis="true" v:ask="false" v:langID="1033"
						v:val="VT4(Equipment)"/>
				<v:cp v:nameU="ShapeType" v:lbl="ShapeType" v:type="0" v:invis="true" v:ask="false" v:langID="1033"
						v:val="VT4(Computer)"/>
				<v:cp v:nameU="SubShapeType" v:lbl="SubShapeType" v:type="0" v:invis="true" v:ask="false" v:langID="1033"
						v:val="VT4(Laptop)"/>
				<v:cp v:nameU="Manufacturer" v:lbl="Manufacturer" v:type="0" v:sortKey="Equipment" v:invis="false" v:ask="false"
						v:langID="1033"/>
				<v:cp v:nameU="ProductNumber" v:lbl="Product Number" v:type="0" v:sortKey="Equipment" v:invis="false" v:ask="false"
						v:langID="1033"/>
				<v:cp v:nameU="PartNumber" v:lbl="Part Number" v:type="0" v:sortKey="Equipment" v:invis="false" v:ask="false"
						v:langID="1033"/>
				<v:cp v:nameU="ProductDescription" v:lbl="Product Description" v:type="0" v:sortKey="Equipment" v:invis="false"
						v:ask="false" v:langID="1033"/>
				<v:cp v:nameU="AssetNumber" v:lbl="Asset Number" v:type="0" v:sortKey="Asset" v:invis="false" v:ask="false"
						v:langID="1033"/>
				<v:cp v:nameU="SerialNumber" v:lbl="Serial Number" v:type="0" v:sortKey="Asset" v:invis="false" v:ask="false"
						v:langID="1033"/>
				<v:cp v:nameU="Location" v:lbl="Location" v:type="0" v:sortKey="Asset" v:invis="false" v:ask="false"
						v:langID="1033"/>
				<v:cp v:nameU="Building" v:lbl="Building" v:type="0" v:sortKey="Asset" v:invis="false" v:ask="false"
						v:langID="1033"/>
				<v:cp v:nameU="Room" v:lbl="Room" v:type="0" v:sortKey="Asset" v:invis="false" v:ask="false" v:langID="1033"/>
				<v:cp v:nameU="NetworkName" v:lbl="Network Name" v:type="0" v:sortKey="Network" v:invis="false" v:ask="false"
						v:langID="1033"/>
				<v:cp v:nameU="IPAddress" v:lbl="IP Address" v:type="0" v:sortKey="Network" v:invis="false" v:ask="false"
						v:langID="1033"/>
				<v:cp v:nameU="SubnetMask" v:lbl="Subnet Mask" v:type="0" v:sortKey="Network" v:invis="false" v:ask="false"
						v:langID="1033"/>
				<v:cp v:nameU="AdminInterface" v:lbl="Administrative Interface" v:type="0" v:sortKey="Network" v:invis="false"
						v:ask="false" v:langID="1033"/>
				<v:cp v:nameU="NumberofPorts" v:lbl="Number of Ports" v:type="0" v:sortKey="Network" v:invis="false" v:ask="false"
						v:langID="1033"/>
				<v:cp v:nameU="MACAddress" v:lbl="MAC Address" v:type="0" v:sortKey="Network" v:invis="false" v:ask="false"
						v:langID="1033"/>
				<v:cp v:nameU="CommunityString" v:lbl="Community String" v:type="0" v:sortKey="Network" v:invis="false"
						v:ask="false" v:langID="1033"/>
				<v:cp v:nameU="NetworkDescription" v:lbl="Network Description" v:type="0" v:sortKey="Network" v:invis="false"
						v:ask="false" v:langID="1033"/>
				<v:cp v:nameU="HardDriveSize" v:lbl="Hard Drive Capacity" v:type="0" v:sortKey="Workstation" v:invis="false"
						v:ask="false" v:langID="1033"/>
				<v:cp v:nameU="CPU" v:lbl="CPU" v:type="0" v:sortKey="Workstation" v:invis="false" v:ask="false" v:langID="1033"/>
				<v:cp v:nameU="Memory" v:lbl="Memory" v:type="0" v:sortKey="Workstation" v:invis="false" v:ask="false"
						v:langID="1033"/>
				<v:cp v:nameU="OperatingSystem" v:lbl="Operating System" v:type="0" v:sortKey="Workstation" v:invis="false"
						v:ask="false" v:langID="1033"/>
			</v:custProps>
			<v:userDefs>
				<v:ud v:nameU="HasText" v:val="VT0(0):5"/>
				<v:ud v:nameU="ShapeClass" v:val="VT0(5):26"/>
				<v:ud v:nameU="ShapeType" v:val="VT0(6):26"/>
				<v:ud v:nameU="SubShapeType" v:val="VT0(37):26"/>
				<v:ud v:nameU="SolSH" v:val="VT15({BF0433D9-CD73-4EB5-8390-8653BE590246}):41"/>
				<v:ud v:nameU="visLegendShape" v:val="VT0(2):26"/>
				<v:ud v:nameU="visVersion" v:prompt="" v:val="VT0(15):26"/>
				<v:ud v:nameU="HasText" v:prompt="" v:val="VT0(1):5"/>
			</v:userDefs>
			<title>Laptop computer</title>
			<desc>Computador Turista</desc>
			<g id="shape85-282" v:mID="85" v:groupContext="shape">
				<title>Sheet.85</title>
				<path d="M70.87 547.8 L59.84 540.25 L34.54 526.84 L31.42 526.84 L31.39 526.96 L22.82 555.87 L0 569.06 L0 574.02 A85.44
							 84.1403 -90.05 0 0 36.48 595.28 L60.94 581.1 L70.87 547.8 Z" class="st6"/>
			</g>
			<g id="shape86-284" v:mID="86" v:groupContext="shape" transform="translate(36.4751,0)">
				<title>Sheet.86</title>
				<path d="M0.02 589.96 L26.24 574.72 L24.47 581.1 L0 595.28 L0.02 589.96 Z" class="st38"/>
			</g>
			<g id="shape87-290" v:mID="87" v:groupContext="shape" transform="translate(59.1434,-18.4489)">
				<title>Sheet.87</title>
				<path d="M0 595.28 L8.6 566.24 L11.72 566.24 L3.57 593.17 L0 595.28 Z" class="st38"/>
			</g>
			<g id="shape88-293" v:mID="88" v:groupContext="shape" transform="translate(31.3228,-47.4803)">
				<title>Sheet.88</title>
				<path d="M0 574.44 L3.22 574.32 L28.52 587.73 L39.54 595.28 L36.43 595.28 A1571.06 1547.16 87.95 0 1 -0 574.44 Z"
						class="st39"/>
			</g>
			<g id="shape89-297" v:mID="89" v:groupContext="shape" transform="translate(0,-5.31496)">
				<title>Sheet.89</title>
				<path d="M0 574.37 L22.82 561.19 L59.14 582.14 L36.5 595.28 A102.944 101.378 89.17 0 1 0 574.37 Z" class="st39"/>
			</g>
			<g id="shape90-300" v:mID="90" v:groupContext="shape" transform="translate(22.8189,-18.4489)">
				<title>Sheet.90</title>
				<path d="M36.32 595.28 A4962.32 4886.83 -91.15 0 0 -0 574.32 L8.6 545.29 L44.93 566.24 L36.32 595.28 Z"
						class="st40"/>
			</g>
			<g id="shape91-305" v:mID="91" v:groupContext="shape">
				<title>Sheet.91</title>
				<path d="M-0 574.02 A85.44 84.1403 -90.05 0 0 36.48 595.28 L36.5 589.96 A85.6626 84.3595 88.88 0 1 0 569.06 L0 574.02
							 Z" class="st40"/>
			</g>
			<g id="shape92-308" v:mID="92" v:groupContext="shape" transform="translate(25.5118,-21.437)">
				<title>Sheet.92</title>
				<path d="M7.51 551.69 L0 576.78 L32.17 595.28" class="st32"/>
			</g>
			<g id="shape93-311" v:mID="93" v:groupContext="shape" transform="translate(54.2126,-1.27559) scale(-1,1)">
				<title>Sheet.93</title>
				<path d="M0 583.09 L15.66 592.16 L15.66 595.28" class="st25"/>
			</g>
			<g id="shape94-314" v:mID="94" v:groupContext="shape" transform="translate(26.5039,-21.437)">
				<title>Sheet.94</title>
				<path d="M0 576.5 L7.23 552.12 L6.52 551.69 A1396.8 1375.55 89.01 0 1 38.55 570.19 L31.18 595.28 L31.32 594.57 A1231.81
							 1213.07 88.95 0 1 -0 576.5 Z" class="st37"/>
			</g>
			<g id="group95-317" transform="translate(5.13165,-7.56695)" v:mID="95" v:groupContext="group">
				<title>Sheet.95</title>
				<g id="shape96-318" v:mID="96" v:groupContext="shape" transform="translate(0,-0.708661)">
					<title>Sheet.96</title>
					<path d="M0 576.37 L3.27 578.26 L6.35 576.48 L3.08 574.59 L0 576.37 ZM4.62 573.7 L7.89 575.59 L10.98 573.81 L7.7
								 571.92 L4.62 573.7 ZM9.24 571.03 L12.52 572.92 L15.6 571.15 L12.32 569.26 L9.24 571.03 ZM13.86 568.37
								 L17.14 570.26 L20.22 568.48 L16.94 566.59 L13.86 568.37 ZM18.77 571.2 L22.05 573.09 L25.13 571.31
								 L21.85 569.42 L18.77 571.2 ZM23.68 574.04 L26.96 575.93 L30.04 574.15 L26.77 572.26 L23.68 574.04
								 ZM28.6 576.87 L31.87 578.77 L34.95 576.99 L31.68 575.1 L28.6 576.87 ZM38.42 582.55 L41.7 584.44
								 L44.78 582.66 L41.5 580.77 L38.42 582.55 ZM43.33 585.38 L46.61 587.27 L49.69 585.49 L46.41 583.6
								 L43.33 585.38 ZM38.71 588.05 L41.99 589.94 L45.07 588.16 L41.79 586.27 L38.71 588.05 ZM33.8 585.21
								 L37.08 587.1 L40.16 585.33 L36.88 583.44 L33.8 585.21 ZM33.51 579.71 L36.78 581.6 L39.86 579.82
								 L36.59 577.93 L33.51 579.71 ZM28.89 582.38 L32.16 584.27 L35.24 582.49 L31.97 580.6 L28.89 582.38
								 ZM23.98 579.54 L27.25 581.43 L30.33 579.65 L27.06 577.76 L23.98 579.54 ZM19.06 576.71 L22.34 578.6
								 L25.42 576.82 L22.14 574.93 L19.06 576.71 ZM14.15 573.87 L17.43 575.76 L20.51 573.98 L17.23 572.09
								 L14.15 573.87 ZM9.53 576.54 L12.81 578.43 L15.89 576.65 L12.61 574.76 L9.53 576.54 ZM14.44 579.37
								 L17.72 581.26 L20.8 579.49 L17.52 577.6 L14.44 579.37 ZM19.36 582.21 L22.63 584.1 L25.71 582.32
								 L22.44 580.43 L19.36 582.21 ZM24.27 585.05 L27.54 586.94 L30.62 585.16 L27.35 583.27 L24.27 585.05
								 ZM29.18 587.88 L32.46 589.77 L35.54 587.99 L32.26 586.1 L29.18 587.88 ZM34.09 590.72 L37.37 592.61
								 L40.45 590.83 L37.17 588.94 L34.09 590.72 ZM29.47 593.38 L32.75 595.28 L35.83 593.5 L32.55 591.61
								 L29.47 593.38 ZM24.56 590.55 L27.84 592.44 L30.92 590.66 L27.64 588.77 L24.56 590.55 ZM9.82 582.04
								 L22.92 589.6 L26 587.83 L12.9 580.26 L9.82 582.04 ZM4.91 579.21 L8.19 581.1 L11.27 579.32 L7.99
								 577.43 L4.91 579.21 Z" class="st29"/>
				</g>
				<g id="shape97-320" v:mID="97" v:groupContext="shape">
					<title>Sheet.97</title>
					<path d="M13.86 568.37 L17.14 570.26 L17.14 569.55 L13.86 567.66 L13.86 568.37 ZM18.77 571.2 L22.05 573.09 L22.05
								 572.38 L18.77 570.49 L18.77 571.2 ZM23.68 574.04 L26.96 575.93 L26.96 575.22 L23.68 573.33 L23.68
								 574.04 ZM28.6 576.87 L31.87 578.77 L31.87 578.06 L28.6 576.17 L28.6 576.87 ZM33.51 579.71 L36.78
								 581.6 L36.78 580.89 L33.51 579 L33.51 579.71 ZM38.42 582.55 L41.7 584.44 L41.7 583.73 L38.42 581.84
								 L38.42 582.55 ZM17.14 569.55 L17.14 570.26 L20.22 568.48 L20.22 567.77 L17.14 569.55 ZM22.05 572.38
								 L22.05 573.09 L25.13 571.31 L25.13 570.61 L22.05 572.38 ZM26.96 575.22 L26.96 575.93 L30.04 574.15
								 L30.04 573.44 L26.96 575.22 ZM31.87 578.06 L31.87 578.77 L34.95 576.99 L34.95 576.28 L31.87 578.06
								 ZM36.78 580.89 L36.78 581.6 L39.86 579.82 L39.86 579.11 L36.78 580.89 ZM41.7 583.73 L41.7 584.44
								 L44.78 582.66 L44.78 581.95 L41.7 583.73 ZM43.33 585.38 L46.61 587.27 L46.61 586.56 L43.33 584.67
								 L43.33 585.38 ZM46.61 586.56 L46.61 587.27 L49.69 585.49 L49.69 584.79 L46.61 586.56 ZM9.24 571.03
								 L12.52 572.92 L12.52 572.22 L9.24 570.33 L9.24 571.03 ZM14.15 573.87 L17.43 575.76 L17.43 575.05
								 L14.15 573.16 L14.15 573.87 ZM19.06 576.71 L22.34 578.6 L22.34 577.89 L19.06 576 L19.06 576.71 ZM23.98
								 579.54 L27.25 581.43 L27.25 580.72 L23.98 578.83 L23.98 579.54 ZM28.89 582.38 L32.16 584.27 L32.16
								 583.56 L28.89 581.67 L28.89 582.38 ZM33.8 585.21 L37.08 587.1 L37.08 586.4 L33.8 584.51 L33.8 585.21
								 ZM12.52 572.22 L12.52 572.92 L15.6 571.15 L15.6 570.44 L12.52 572.22 ZM17.43 575.05 L17.43 575.76
								 L20.51 573.98 L20.51 573.27 L17.43 575.05 ZM22.34 577.89 L22.34 578.6 L25.42 576.82 L25.42 576.11
								 L22.34 577.89 ZM27.25 580.72 L27.25 581.43 L30.33 579.65 L30.33 578.95 L27.25 580.72 ZM32.16 583.56
								 L32.16 584.27 L35.24 582.49 L35.24 581.78 L32.16 583.56 ZM37.08 586.4 L37.08 587.1 L40.16 585.33
								 L40.16 584.62 L37.08 586.4 ZM38.71 588.05 L41.99 589.94 L41.99 589.23 L38.71 587.34 L38.71 588.05
								 ZM41.99 589.23 L41.99 589.94 L45.07 588.16 L45.07 587.45 L41.99 589.23 ZM4.62 573.7 L7.89 575.59
								 L7.89 574.88 L4.62 572.99 L4.62 573.7 ZM9.53 576.54 L12.81 578.43 L12.81 577.72 L9.53 575.83 L9.53
								 576.54 ZM14.44 579.37 L17.72 581.26 L17.72 580.56 L14.44 578.66 L14.44 579.37 ZM19.36 582.21 L22.63
								 584.1 L22.63 583.39 L19.36 581.5 L19.36 582.21 ZM24.27 585.05 L27.54 586.94 L27.54 586.23 L24.27
								 584.34 L24.27 585.05 ZM29.18 587.88 L32.46 589.77 L32.46 589.06 L29.18 587.17 L29.18 587.88 ZM7.89
								 574.88 L7.89 575.59 L10.98 573.81 L10.98 573.11 L7.89 574.88 ZM12.81 577.72 L12.81 578.43 L15.89
								 576.65 L15.89 575.94 L12.81 577.72 ZM17.72 580.56 L17.72 581.26 L20.8 579.49 L20.8 578.78 L17.72
								 580.56 ZM22.63 583.39 L22.63 584.1 L25.71 582.32 L25.71 581.61 L22.63 583.39 ZM27.54 586.23 L27.54
								 586.94 L30.62 585.16 L30.62 584.45 L27.54 586.23 ZM32.46 589.06 L32.46 589.77 L35.54 587.99 L35.54
								 587.29 L32.46 589.06 ZM34.09 590.72 L37.37 592.61 L37.37 591.9 L34.09 590.01 L34.09 590.72 ZM37.37
								 591.9 L37.37 592.61 L40.45 590.83 L40.45 590.12 L37.37 591.9 ZM0 576.37 L3.27 578.26 L3.27 577.55
								 L0 575.66 L0 576.37 ZM4.91 579.21 L8.19 581.1 L8.19 580.39 L4.91 578.5 L4.91 579.21 ZM9.82 582.04
								 L22.92 589.6 L22.92 588.89 L9.82 581.33 L9.82 582.04 ZM24.56 590.55 L27.84 592.44 L27.84 591.73
								 L24.56 589.84 L24.56 590.55 ZM3.27 577.55 L3.27 578.26 L6.35 576.48 L6.35 575.77 L3.27 577.55 ZM8.19
								 580.39 L8.19 581.1 L11.27 579.32 L11.27 578.61 L8.19 580.39 ZM22.92 588.89 L22.92 589.6 L26 587.83
								 L26 587.12 L22.92 588.89 ZM27.84 591.73 L27.84 592.44 L30.92 590.66 L30.92 589.95 L27.84 591.73
								 ZM29.47 593.38 L32.75 595.28 L32.75 594.57 L29.47 592.68 L29.47 593.38 ZM32.75 594.57 L32.75 595.28
								 L35.83 593.5 L35.83 592.79 L32.75 594.57 Z" class="st30"/>
				</g>
			</g>
			<g id="shape98-322" v:mID="98" v:groupContext="shape">
				<title>Sheet.98</title>
				<path d="M36.48 595.28 L60.94 581.1 L70.87 547.8 L34.54 526.84 L31.42 526.84 L22.82 555.87 L0 569.06 L0 574.02 A86.9113
							 85.5892 -90.05 0 0 36.48 595.28 Z" class="st33"/>
			</g>
			<g id="shape84-324" v:mID="84" v:groupContext="groupContent">
				<v:textBlock v:margins="rect(0,0,0,0)" v:tabSpace="42.5197"/>
				<v:textRect cx="35.4331" cy="609.678" width="64.23" height="28.8038"/>
				<text x="4.68" y="606.08" class="st20" v:langID="2070"><v:paragraph v:horizAlign="1"/><v:tabList/>Computador<v:newlineChar/><tspan
							x="18.66" dy="1.2em" class="st26">Turista</tspan></text>			</g>
		</g>
		<g id="shape101-327" v:mID="101" v:groupContext="shape" v:layerMember="0" transform="translate(221.55,-467.717)">
			<title>Dynamic connector</title>
			<path d="M0 588.19 L148.12 588.19" class="st25"/>
		</g>
		<g id="shape102-330" v:mID="102" v:groupContext="shape" v:layerMember="0" transform="translate(420.684,-474.803)">
			<title>Dynamic connector.102</title>
			<path d="M0 595.28 L32.95 595.28 L32.95 694.77" class="st25"/>
		</g>
		<g id="shape103-333" v:mID="103" v:groupContext="shape" v:layerMember="0" transform="translate(671.974,-316.382)">
			<title>Dynamic connector.103</title>
			<path d="M0 588.19 L-181.13 588.19" class="st25"/>
		</g>
		<g id="shape104-336" v:mID="104" v:groupContext="shape" v:layerMember="0" transform="translate(675.093,-267.107)">
			<title>Dynamic connector.104</title>
			<path d="M7.09 595.28 L7.09 695.21" class="st25"/>
		</g>
		<g id="shape105-339" v:mID="105" v:groupContext="shape" v:layerMember="0" transform="translate(664.463,-267.625)">
			<title>Dynamic connector.105</title>
			<path d="M0 595.28 L0 611.33 L-100.39 611.33 A2.3622 2.3622 -180 0 0 -105.12 611.33 L-478.35 611.33 L-478.35 695.04"
					class="st25"/>
		</g>
		<g id="group106-342" transform="translate(419.975,-99.2126)" v:mID="106" v:groupContext="group">
			<v:custProps>
				<v:cp v:nameU="Manufacturer" v:lbl="Manufacturer" v:type="0" v:sortKey="Equipment" v:invis="false" v:ask="false"
						v:langID="1033"/>
				<v:cp v:nameU="ProductNumber" v:lbl="Product Number" v:type="0" v:sortKey="Equipment" v:invis="false" v:ask="false"
						v:langID="1033"/>
				<v:cp v:nameU="PartNumber" v:lbl="Part Number" v:type="0" v:sortKey="Equipment" v:invis="false" v:ask="false"
						v:langID="1033"/>
				<v:cp v:nameU="ProductDescription" v:lbl="Product Description" v:type="0" v:sortKey="Equipment" v:invis="false"
						v:ask="false" v:langID="1033"/>
				<v:cp v:nameU="AssetNumber" v:lbl="Asset Number" v:type="0" v:sortKey="Asset" v:invis="false" v:ask="false"
						v:langID="1033"/>
				<v:cp v:nameU="SerialNumber" v:lbl="Serial Number" v:type="0" v:sortKey="Asset" v:invis="false" v:ask="false"
						v:langID="1033"/>
				<v:cp v:nameU="Location" v:lbl="Location" v:type="0" v:sortKey="Asset" v:invis="false" v:ask="false"
						v:langID="1033"/>
				<v:cp v:nameU="Building" v:lbl="Building" v:type="0" v:sortKey="Asset" v:invis="false" v:ask="false"
						v:langID="1033"/>
				<v:cp v:nameU="Room" v:lbl="Room" v:type="0" v:sortKey="Asset" v:invis="false" v:ask="false" v:langID="1033"/>
				<v:cp v:nameU="Department" v:lbl="Department" v:type="0" v:invis="false" v:ask="false" v:langID="1033"/>
				<v:cp v:nameU="NetworkName" v:lbl="Network Name" v:type="0" v:sortKey="Network" v:invis="false" v:ask="false"
						v:langID="1033"/>
				<v:cp v:nameU="IPAddress" v:lbl="IP Address" v:type="0" v:sortKey="Network" v:invis="false" v:ask="false"
						v:langID="1033"/>
				<v:cp v:nameU="SubnetMask" v:lbl="Subnet Mask" v:type="0" v:sortKey="Network" v:invis="false" v:ask="false"
						v:langID="1033"/>
				<v:cp v:nameU="AdminInterface" v:lbl="Administrative Interface" v:type="0" v:sortKey="Network" v:invis="false"
						v:ask="false" v:langID="1033"/>
				<v:cp v:nameU="NumberofPorts" v:lbl="Number of Ports" v:type="0" v:sortKey="Network" v:invis="false" v:ask="false"
						v:langID="1033"/>
				<v:cp v:nameU="CommunityString" v:lbl="Community String" v:type="0" v:sortKey="Network" v:invis="false"
						v:ask="false" v:langID="1033"/>
				<v:cp v:nameU="NetworkDescription" v:lbl="Network Description" v:type="0" v:sortKey="Network" v:invis="false"
						v:ask="false" v:langID="1033"/>
				<v:cp v:nameU="CPU" v:lbl="CPU" v:type="0" v:sortKey="Workstation" v:invis="false" v:ask="false" v:langID="1033"/>
				<v:cp v:nameU="Memory" v:lbl="Memory" v:type="0" v:sortKey="Workstation" v:invis="false" v:ask="false"
						v:langID="1033"/>
				<v:cp v:nameU="OperatingSystem" v:lbl="Operating System" v:type="0" v:sortKey="Workstation" v:invis="false"
						v:ask="false" v:langID="1033"/>
				<v:cp v:nameU="BelongsTo" v:lbl="Belongs To" v:type="0" v:invis="true" v:ask="false" v:langID="1033"/>
				<v:cp v:nameU="ShapeClass" v:lbl="ShapeClass" v:type="0" v:invis="true" v:ask="false" v:langID="1033"
						v:val="VT4(Equipment)"/>
				<v:cp v:nameU="ShapeType" v:lbl="ShapeType" v:type="0" v:invis="true" v:ask="false" v:langID="1033"
						v:val="VT4(Computer)"/>
				<v:cp v:nameU="SubShapeType" v:lbl="SubShapeType" v:type="0" v:invis="true" v:ask="false" v:langID="1033"
						v:val="VT4(Desktop)"/>
				<v:cp v:nameU="MACAddress" v:lbl="MAC Address" v:type="0" v:sortKey="Network" v:invis="false" v:ask="false"
						v:langID="1033"/>
				<v:cp v:nameU="HardDriveSize" v:lbl="Hard Drive Capacity" v:type="0" v:sortKey="Workstation" v:invis="false"
						v:ask="false" v:langID="1033"/>
			</v:custProps>
			<v:userDefs>
				<v:ud v:nameU="HasText" v:val="VT0(0):5"/>
				<v:ud v:nameU="ShapeClass" v:val="VT0(5):26"/>
				<v:ud v:nameU="ShapeType" v:val="VT0(6):26"/>
				<v:ud v:nameU="SubShapeType" v:val="VT0(17):26"/>
				<v:ud v:nameU="SolSH" v:val="VT15({BF0433D9-CD73-4EB5-8390-8653BE590246}):41"/>
				<v:ud v:nameU="visLegendShape" v:val="VT0(2):26"/>
				<v:ud v:nameU="visVersion" v:prompt="" v:val="VT0(15):26"/>
				<v:ud v:nameU="HasText" v:prompt="" v:val="VT0(1):5"/>
			</v:userDefs>
			<title>PC.106</title>
			<desc>Computador Administrador</desc>
			<g id="shape107-343" v:mID="107" v:groupContext="shape">
				<title>Sheet.107</title>
				<path d="M62.61 550.72 L62.61 535.49 L45.18 525.33 L37.15 527.64 L31.65 524.41 L25.23 526.95 L25.23 551.04 L19.15
							 554.65 L19.15 565.73 A61.6634 62.0652 -180 0 0 45.87 581.19 L70.87 566.65 L70.87 555.57 L62.61 550.72
							 ZM0 576.35 L0 579.58 L27.06 595.28 L39.68 587.89 L39.68 583.73 L12.16 567.81 L0 576.35 Z" class="st6"/>
			</g>
			<g id="shape108-345" v:mID="108" v:groupContext="shape" transform="translate(27.0622,-1.13687E-13)">
				<title>Sheet.108</title>
				<path d="M0 595.28 L0 592.07 L12.61 583.73 L12.61 587.89 L0 595.28 Z" class="st27"/>
			</g>
			<g id="shape109-348" v:mID="109" v:groupContext="shape" transform="translate(3.43725E-13,-3.20229)">
				<title>Sheet.109</title>
				<path d="M0 579.55 L12.16 571.01 L39.68 586.94 L27.06 595.28 L0 579.55 Z" class="st23"/>
			</g>
			<g id="shape110-351" v:mID="110" v:groupContext="shape" transform="translate(19.1499,-25.1768)">
				<title>Sheet.110</title>
				<path d="M26.72 595.28 L51.72 580.75 L24.88 565.05 L0 579.83 A63.0565 63.4673 -180 0 0 26.72 595.28 Z" class="st23"/>
			</g>
			<g id="shape111-354" v:mID="111" v:groupContext="shape" transform="translate(47.7028,-29.5468)">
				<title>Sheet.111</title>
				<path d="M0 595.28 L0 569.42 L5.25 566.35 L5.05 590.89 L0 595.28 Z" class="st27"/>
			</g>
			<g id="shape112-357" v:mID="112" v:groupContext="shape" transform="translate(52.7483,-36.4718)">
				<title>Sheet.112</title>
				<path d="M0.19 575.69 L9.86 571.96 L9.86 587.2 L0 595.28 L0.19 575.69 Z" class="st27"/>
			</g>
			<g id="shape113-360" v:mID="113" v:groupContext="shape" transform="translate(37.1531,-56.0564)">
				<title>Sheet.113</title>
				<path d="M15.78 595.28 L15.8 592.86 L0 583.7 L8.03 581.39 L25.46 591.55 L15.78 595.28 Z" class="st23"/>
			</g>
			<g id="shape114-363" v:mID="114" v:groupContext="shape" transform="translate(45.8681,-14.0809)">
				<title>Sheet.114</title>
				<path d="M0 584.18 L25 569.65 L25 580.73 L0 595.28 L0 584.18 Z" class="st27"/>
			</g>
			<g id="shape115-366" v:mID="115" v:groupContext="shape" transform="translate(25.2274,-55.4002)">
				<title>Sheet.115</title>
				<path d="M0 582.35 L6.42 579.81 L11.94 583.05 L27.73 592.21 L22.48 595.28 A62.9339 63.3439 0 0 1 0 582.35 Z"
						class="st23"/>
			</g>
			<g id="shape116-369" v:mID="116" v:groupContext="shape">
				<title>Sheet.116</title>
				<path d="M0 576.35 L27.06 592.07 L27.06 595.28 L0 579.58 L0 576.35 Z" class="st28"/>
			</g>
			<g id="group117-372" transform="translate(2.94717,-4.84819)" v:mID="117" v:groupContext="group">
				<title>Sheet.117</title>
				<g id="shape118-373" v:mID="118" v:groupContext="shape" transform="translate(0,-0.472502)">
					<title>Sheet.118</title>
					<path d="M0 580.77 L1.98 581.95 L3.64 580.87 L1.65 579.69 L0 580.77 ZM2.46 579.12 L4.44 580.3 L6.09 579.21 L4.11
								 578.03 L2.46 579.12 ZM4.91 577.46 L6.9 578.65 L8.55 577.56 L6.57 576.38 L4.91 577.46 ZM7.37 575.81
								 L9.35 576.99 L11.01 575.91 L9.02 574.72 L7.37 575.81 ZM11.06 578.03 L13.04 579.21 L14.69 578.13
								 L12.71 576.94 L11.06 578.03 ZM14.74 580.25 L16.72 581.43 L18.38 580.35 L16.39 579.16 L14.74 580.25
								 ZM18.43 582.47 L20.41 583.65 L22.06 582.57 L20.08 581.39 L18.43 582.47 ZM25.8 586.91 L27.78 588.09
								 L29.43 587.01 L27.45 585.83 L25.8 586.91 ZM29.48 589.13 L31.46 590.31 L33.12 589.23 L31.13 588.05
								 L29.48 589.13 ZM27.02 590.79 L29.01 591.97 L30.66 590.88 L28.68 589.7 L27.02 590.79 ZM23.34 588.57
								 L25.32 589.75 L26.98 588.66 L24.99 587.48 L23.34 588.57 ZM22.11 584.69 L24.09 585.87 L25.75 584.79
								 L23.76 583.61 L22.11 584.69 ZM19.65 586.35 L21.64 587.53 L23.29 586.44 L21.31 585.26 L19.65 586.35
								 ZM15.97 584.13 L17.95 585.31 L19.61 584.22 L17.62 583.04 L15.97 584.13 ZM12.28 581.91 L14.27 583.09
								 L15.92 582 L13.94 580.82 L12.28 581.91 ZM8.6 579.69 L10.58 580.87 L12.24 579.78 L10.25 578.6 L8.6
								 579.69 ZM6.14 581.34 L8.13 582.52 L9.78 581.43 L7.8 580.25 L6.14 581.34 ZM9.83 583.56 L11.81 584.74
								 L13.46 583.65 L11.48 582.47 L9.83 583.56 ZM13.51 585.78 L15.5 586.96 L17.15 585.87 L15.17 584.69
								 L13.51 585.78 ZM17.2 588 L19.18 589.18 L20.83 588.09 L18.85 586.91 L17.2 588 ZM20.88 590.22 L22.87
								 591.4 L24.52 590.31 L22.54 589.13 L20.88 590.22 ZM24.57 592.44 L26.55 593.62 L28.2 592.54 L26.22
								 591.35 L24.57 592.44 ZM22.11 594.09 L24.09 595.28 L25.75 594.19 L23.76 593.01 L22.11 594.09 ZM18.43
								 591.87 L20.41 593.06 L22.06 591.97 L20.08 590.79 L18.43 591.87 ZM7.37 585.21 L16.72 590.83 L18.38
								 589.75 L9.02 584.13 L7.37 585.21 ZM3.69 582.99 L5.67 584.17 L7.32 583.09 L5.34 581.91 L3.69 582.99
								 Z" class="st29"/>
				</g>
				<g id="shape119-375" v:mID="119" v:groupContext="shape" transform="translate(0.000779402,1.13687E-13)">
					<title>Sheet.119</title>
					<path d="M7.37 575.81 L9.36 576.99 L9.36 576.52 L7.37 575.34 L7.37 575.81 ZM11.06 578.03 L13.04 579.21 L13.04
								 578.74 L11.06 577.56 L11.06 578.03 ZM14.74 580.25 L16.72 581.43 L16.72 580.96 L14.74 579.78 L14.74
								 580.25 ZM18.43 582.47 L20.41 583.65 L20.41 583.18 L18.43 582 L18.43 582.47 ZM22.11 584.69 L24.09
								 585.87 L24.09 585.4 L22.11 584.22 L22.11 584.69 ZM25.8 586.91 L27.78 588.09 L27.78 587.62 L25.79
								 586.44 L25.8 586.91 ZM9.35 576.52 L9.35 576.99 L11.01 575.9 L11.01 575.43 L9.35 576.52 ZM13.04 578.74
								 L13.04 579.21 L14.69 578.12 L14.69 577.65 L13.04 578.74 ZM16.72 580.96 L16.72 581.43 L18.38 580.34
								 L18.38 579.87 L16.72 580.96 ZM20.41 583.18 L20.41 583.65 L22.06 582.57 L22.06 582.09 L20.41 583.18
								 ZM24.09 585.4 L24.09 585.87 L25.75 584.79 L25.75 584.31 L24.09 585.4 ZM27.78 587.62 L27.78 588.09
								 L29.43 587.01 L29.43 586.53 L27.78 587.62 ZM29.48 589.13 L31.46 590.31 L31.46 589.84 L29.48 588.66
								 L29.48 589.13 ZM31.46 589.84 L31.46 590.31 L33.12 589.23 L33.12 588.76 L31.46 589.84 ZM4.91 577.46
								 L6.9 578.65 L6.9 578.17 L4.91 576.99 L4.91 577.46 ZM8.6 579.68 L10.58 580.87 L10.58 580.39 L8.6
								 579.21 L8.6 579.68 ZM12.28 581.9 L14.27 583.09 L14.27 582.61 L12.28 581.43 L12.28 581.9 ZM15.97
								 584.13 L17.95 585.31 L17.95 584.83 L15.97 583.65 L15.97 584.13 ZM19.65 586.35 L21.64 587.53 L21.64
								 587.05 L19.65 585.87 L19.65 586.35 ZM23.34 588.57 L25.32 589.75 L25.32 589.28 L23.34 588.09 L23.34
								 588.57 ZM6.9 578.17 L6.9 578.64 L8.55 577.56 L8.55 577.09 L6.9 578.17 ZM10.58 580.39 L10.58 580.86
								 L12.24 579.78 L12.24 579.31 L10.58 580.39 ZM14.27 582.61 L14.27 583.09 L15.92 582 L15.92 581.53
								 L14.27 582.61 ZM17.95 584.83 L17.95 585.31 L19.61 584.22 L19.61 583.75 L17.95 584.83 ZM21.64 587.05
								 L21.64 587.53 L23.29 586.44 L23.29 585.97 L21.64 587.05 ZM25.32 589.27 L25.32 589.75 L26.98 588.66
								 L26.98 588.19 L25.32 589.27 ZM27.02 590.79 L29.01 591.97 L29.01 591.5 L27.02 590.31 L27.02 590.79
								 ZM29.01 591.5 L29.01 591.97 L30.66 590.88 L30.66 590.41 L29.01 591.5 ZM2.46 579.12 L4.44 580.3 L4.44
								 579.83 L2.46 578.64 L2.46 579.12 ZM6.14 581.34 L8.13 582.52 L8.13 582.05 L6.14 580.87 L6.14 581.34
								 ZM9.83 583.56 L11.81 584.74 L11.81 584.27 L9.83 583.09 L9.83 583.56 ZM13.51 585.78 L15.5 586.96
								 L15.5 586.49 L13.51 585.31 L13.51 585.78 ZM17.2 588 L19.18 589.18 L19.18 588.71 L17.2 587.53 L17.2
								 588 ZM20.88 590.22 L22.87 591.4 L22.87 590.93 L20.88 589.75 L20.88 590.22 ZM4.44 579.83 L4.44 580.3
								 L6.09 579.21 L6.09 578.74 L4.44 579.83 ZM8.13 582.05 L8.13 582.52 L9.78 581.43 L9.78 580.96 L8.13
								 582.05 ZM11.81 584.27 L11.81 584.74 L13.46 583.65 L13.46 583.18 L11.81 584.27 ZM15.5 586.49 L15.5
								 586.96 L17.15 585.87 L17.15 585.4 L15.5 586.49 ZM19.18 588.71 L19.18 589.18 L20.83 588.09 L20.83
								 587.62 L19.18 588.71 ZM22.87 590.93 L22.87 591.4 L24.52 590.31 L24.52 589.84 L22.87 590.93 ZM24.57
								 592.44 L26.55 593.62 L26.55 593.15 L24.57 591.97 L24.57 592.44 ZM26.55 593.15 L26.55 593.62 L28.2
								 592.54 L28.2 592.06 L26.55 593.15 ZM0 580.77 L1.98 581.95 L1.98 581.48 L0 580.3 L0 580.77 ZM3.69
								 582.99 L5.67 584.17 L5.67 583.7 L3.68 582.52 L3.69 582.99 ZM7.37 585.21 L16.72 590.83 L16.72 590.36
								 L7.37 584.74 L7.37 585.21 ZM18.42 591.87 L20.41 593.06 L20.41 592.58 L18.42 591.4 L18.42 591.87
								 ZM1.98 581.48 L1.98 581.95 L3.64 580.87 L3.64 580.39 L1.98 581.48 ZM5.67 583.7 L5.67 584.17 L7.32
								 583.09 L7.32 582.61 L5.67 583.7 ZM16.72 590.36 L16.72 590.83 L18.38 589.75 L18.38 589.28 L16.72
								 590.36 ZM20.41 592.58 L20.41 593.05 L22.06 591.97 L22.06 591.5 L20.41 592.58 ZM22.11 594.09 L24.09
								 595.28 L24.09 594.8 L22.11 593.62 L22.11 594.09 ZM24.09 594.8 L24.09 595.28 L25.75 594.19 L25.75
								 593.72 L24.09 594.8 Z" class="st30"/>
				</g>
			</g>
			<g id="shape120-377" v:mID="120" v:groupContext="shape" transform="translate(65.0282,-28.4965)">
				<title>Sheet.120</title>
				<path d="M1.71 588.45 L3.14 587.55 L3.14 593.45 L1.71 594.35 L1.71 588.45 ZM0 589.38 L0.79 588.92 L0.79 594.81 L0
							 595.28 L0 589.38 Z" class="st31"/>
			</g>
			<g id="shape121-379" v:mID="121" v:groupContext="shape" transform="translate(19.1499,-14.0809)">
				<title>Sheet.121</title>
				<path d="M28.55 579.81 A51.0927 51.4255 0 0 1 6.08 567.11 L6.08 541.03 A61.9225 62.3259 -180 0 0 28.55 553.96 L28.55
							 579.81 ZM-0 579.81 A61.6634 62.0652 -180 0 0 26.72 595.28 L26.72 584.18 A62.0514 62.4556 0 0 1 -0 568.73
							 L0 579.81 Z" class="st24"/>
				<path d="M28.55 579.81 A51.0927 51.4255 0 0 1 6.08 567.11 L6.08 541.03 A61.9225 62.3259 -180 0 0 28.55 553.96 L28.55
							 579.81" class="st25"/>
				<path d="M1.95 573.35 A36.6775 36.4401 -90 0 0 7.91 578.19" class="st25"/>
				<path d="M1.95 574.96 A36.6775 36.4401 -90 0 0 7.91 579.81" class="st25"/>
				<path d="M1.95 576.58 A36.6775 36.4401 -90 0 0 7.91 581.43" class="st25"/>
				<path d="M1.95 578.19 A36.6775 36.4401 -90 0 0 7.91 583.04" class="st25"/>
				<path d="M23.51 543.67 L34.06 549.8" class="st25"/>
				<path d="M24.88 543.29 L35.43 549.42" class="st25"/>
				<path d="M26.26 542.9 L36.81 549.03" class="st25"/>
				<path d="M27.64 542.52 L38.19 548.65" class="st25"/>
				<path d="M-0 579.81 A61.6634 62.0652 -180 0 0 26.72 595.28 L26.72 584.18 A62.0514 62.4556 0 0 1 -0 568.73 L0 579.81"
						class="st25"/>
			</g>
			<g id="shape122-392" v:mID="122" v:groupContext="shape" transform="translate(27.9795,-34.2045)">
				<title>Sheet.122</title>
				<path d="M0 566.92 L0 585.62 A52.8389 52.4969 -90.11 0 0 16.28 595.28" class="st32"/>
			</g>
			<g id="shape123-396" v:mID="123" v:groupContext="shape">
				<title>Sheet.123</title>
				<path d="M45.87 581.19 L70.87 566.65 L70.87 555.57 L62.61 550.72 L62.61 535.49 L45.18 525.33 L37.15 527.64 L31.65
							 524.41 L25.23 526.95 L25.23 551.19 L19.15 554.65 L19.15 565.73 A63.1339 62.7253 -90 0 0 45.87 581.19
							 ZM0 576.35 L12.16 567.81 L39.68 583.73 L39.68 587.89 L27.06 595.28 L0 579.58 L0 576.35 Z" class="st33"/>
			</g>
			<g id="group124-398" transform="translate(33.2543,-18.0051)" v:mID="124" v:groupContext="group">
				<title>Sheet.124</title>
				<g id="shape125-399" v:mID="125" v:groupContext="shape" transform="translate(2.2227,0)">
					<title>Sheet.125</title>
					<path d="M0.76 590.43 L8.56 593.54 a0.90402 0.909909 0 0 1 -0.22934 1.73126 L0.76 592.27 a0.933946 0.940031 0
								 0 1 -1.27676E-14 -1.84667 Z" class="st34"/>
				</g>
				<g id="shape126-401" v:mID="126" v:groupContext="shape" transform="translate(5.59552E-14,-3.23168)">
					<title>Sheet.126</title>
					<path d="M0 588.35 L11.24 592.97 L11.24 595.28 L0 590.89 L0 588.35 Z" class="st35"/>
				</g>
				<g id="shape127-403" v:mID="127" v:groupContext="shape" transform="translate(5.59552E-14,-3.23168)">
					<title>Sheet.127</title>
					<path d="M0 588.35 L11.24 592.97 L11.24 595.28" class="st19"/>
				</g>
				<g id="shape128-406" v:mID="128" v:groupContext="shape" transform="translate(5.59552E-14,-4.61669)">
					<title>Sheet.128</title>
					<path d="M0 590.66 L11.24 595.28" class="st19"/>
				</g>
				<g id="shape129-409" v:mID="129" v:groupContext="shape" transform="translate(-5.79536E-14,-3.23168)">
					<title>Sheet.129</title>
					<path d="M0 588.35 L0 590.89 L11.24 595.28" class="st8"/>
				</g>
			</g>
			<g id="shape130-412" v:mID="130" v:groupContext="shape" transform="translate(-255.771,47.9892) rotate(-30)">
				<title>Sheet.130</title>
				<ellipse cx="0.769099" cy="594.247" rx="0.769099" ry="1.0288" class="st36"/>
			</g>
			<g id="shape131-415" v:mID="131" v:groupContext="shape" transform="translate(27.9795,-34.2045)">
				<title>Sheet.131</title>
				<path d="M0.69 585.19 L0.69 567.61 L0 566.92 A39.8543 39.5964 -90.48 0 0 16.28 576.62 L16.28 595.28 L16.28 594.44
							 A50.3455 50.0196 91.46 0 1 0.69 585.19 Z" class="st37"/>
			</g>
			<g id="shape106-418" v:mID="106" v:groupContext="groupContent">
				<v:textBlock v:margins="rect(4,4,4,4)" v:tabSpace="42.5197"/>
				<v:textRect cx="35.4331" cy="613.678" width="80.83" height="36.8038"/>
				<text x="4.68" y="610.08" class="st20" v:langID="2070"><v:paragraph v:horizAlign="1"/><v:tabList/>Computador<v:newlineChar/><tspan
							x="0.38" dy="1.2em" class="st26">Administrador</tspan></text>			</g>
		</g>
		<g id="shape132-421" v:mID="132" v:groupContext="shape" v:layerMember="0" transform="translate(665.897,-292.837)">
			<title>Dynamic connector.132</title>
			<path d="M0 595.28 L-104.19 595.28 L-104.19 753.47 L-175.06 753.47" class="st25"/>
		</g>
	</g>
</svg>
